<?xml version="1.0" encoding="utf-8"?>
<!-- Generator: Adobe Illustrator 16.0.0, SVG Export Plug-In . SVG Version: 6.00 Build 0)  -->
<!DOCTYPE svg PUBLIC "-//W3C//DTD SVG 1.1//EN" "http://www.w3.org/Graphics/SVG/1.1/DTD/svg11.dtd">
<svg version="1.1" id="Layer_1" xmlns="http://www.w3.org/2000/svg" xmlns:xlink="http://www.w3.org/1999/xlink" x="0px" y="0px"
	 width="310px" height="235.049px" viewBox="0 0 310 235.049" enable-background="new 0 0 310 235.049" xml:space="preserve">
<g>
	<g>
		<path fill="#FFFFFF" d="M299.458,58.38c0.144,3.566-0.115,9.135-0.717,12.476c0.064,4.952,0.063,24.558-0.439,36.7
			c-0.735,17.745,0.314,33.953,0.439,34.629c0.229,1.241,0.047,5.968-2.323,2.202c-2.004-3.184-8.058-7.151-12.741-8.184
			c-2.306-0.506-5.412,0.709-8.182,1.095c-7.796,1.085-16.279,3.972-22.689,8.098c-15.983,10.29-17.404,9.503-23.501,10.858
			c0,0-5.178-6.846-9.92-9.652c-3.594-2.126-7.923-6.84-11.549-9.989c-1.462-1.269-2.302,0.314-5.855-3.379
			c-13.077-13.598-20.367-27.434-23.856-36.743c0,0,0,0.002,0.003,0.003c0.171,0.304,11.223,19.8,15.286,24.199
			c4.095,4.434,5.42,4.271,7.948,6.899c2.526,2.629,3.36,4.582,6.351,6.25c2.988,1.668,6.466,4.199,7.948,5.62
			c1.48,1.419,3.416,3.128,8.19,0.123c4.774-3.004,23.529-17.453,25.725-18.933c2.196-1.479,4.125-1.888,2.114-9.021
			c-2.011-7.133-8.183-26.16-10.428-31.887c-0.332-0.848-0.76-1.841-1.256-2.934c-2.848-6.292-7.873-15.801-9.003-18.696
			c-1.327-3.398-9.432-21.034-10.711-28.135c-0.66-3.667-2.422-6.675-4.26-8.824c0.976,0.454,1.969,1.024,2.98,1.723
			c-3.945-8.537-4.81-13.54-2.911-15.526c0.178-0.189,0.382-0.349,0.609-0.483c4.876-2.874,20.673-0.707,25.726,2.058
			c1.674,1.425,3.75,5.43,5.793,9.863v0.002c2.343,5.085,4.644,10.733,6.245,13.699c-0.188-2.674-0.776-8.117-1.791-13.305
			c-0.696-3.562-2.209-7.187-1.811-9.024c0.083-0.38,0.301-0.747,0.61-1.08c0.891-0.956,2.539-1.625,3.876-1.472
			c0.124,0.014,0.248,0.029,0.371,0.044c5.08,0.616,10.507,1.958,14.404,6.974c1.339,1.722,2.617,3.671,3.838,5.81
			c0.07,0.123,0.139,0.248,0.209,0.371c1.4,2.496,2.804,6.448,4.1,10.113c0,0,0.001,0.002,0.002,0.008
			c0.562,1.589,1.104,3.125,1.617,4.463c0.808,2.104-0.69-8.568,1.73-10.69c0.197-0.176,0.422-0.294,0.677-0.341
			c5.321-0.988,9.95,3.964,12.883,9.868C297.846,39.576,299.044,48.215,299.458,58.38z"/>
	</g>
	<g>
		<path fill="#FFFFFF" d="M301.03,165.143c1.114,3.706,1.636,8.047,2.331,11.544c0.96,4.831,1.912,10.936,0.889,11.358
			c0.007,0.063,0.021,0.131,0.04,0.202c0.187,0.697,0.861,1.71,1.25,2.784c0.268,0.74,0.399,1.507,0.142,2.219
			c-1.126,3.1-0.457,5.441-0.457,5.441c-1.988,3.124-18.158,8.567-32.911,11.173c-6.604,1.166-12.674,1.242-17.554,1.312
			c-2.028,0.029-3.851,0.057-5.422,0.164c-2.264,0.151-3.853,0.152-4.497-0.035c-2.319-0.674-5.368-6.288-8.322-13.198
			c-1.208-2.83-1.526-6.035-2.646-9.049c-0.897-2.413-3.224-5.936-4.336-8.438c-0.146-0.323-0.268-0.63-0.366-0.915
			c-2.292-6.69-2.328-7.223-2.691-10.269c-0.228-1.896,1.407-3.38,6.891-4.075c0.803-0.103,0.573,0.611,1.481,0.545
			c13.533-0.991,36.166-5.024,49.997-8.098c10.002-2.222,12.514-4.626,12.514-4.626s1.951,2.375,2.784,4.37
			c0.58,1.386-0.992,3.15-0.652,3.772c0.062,0.11,0.122,0.224,0.181,0.339C300.211,162.713,300.655,163.892,301.03,165.143z"/>
	</g>
	<g>
		<path fill="#F7941E" d="M254.759,211.176c-2.028,0.029-3.851,0.057-5.422,0.164c-2.264,0.151-3.853,0.152-4.497-0.035
			c-2.319-0.674-5.368-6.288-8.322-13.198c-1.208-2.83-1.526-6.035-2.646-9.049c-0.897-2.413-3.224-5.936-4.336-8.438l10.016-0.404
			C239.551,180.216,252.826,201.45,254.759,211.176z"/>
	</g>
	<g>
		<path fill="#A7A9AC" d="M272.525,202.138c-0.748,0.167-1.413,0.304-1.974,0.408c-7.144,1.327-8.194,1.054-10.229-2.662
			c-1.688-3.079-7.302-12.417-10.656-17.995c-0.525-0.875-0.987-1.644-1.358-2.262c-1.364-2.275-1.828-3.976-1.418-5.198
			c0.285-0.853,0.979-1.477,2.182-1.962c0.756-0.305,2.065-0.427,4.158-0.607c3.877-0.334,10.365-0.894,21.694-3.327
			c13.696-2.94,21.872-5.93,24.68-7.046l0.16-0.063l0.078,0.154c0.513,0.999,0.961,2.147,1.37,3.513l0.044,0.146l-0.135,0.074
			c-3.201,1.763-9.776,3.758-19.54,5.928c-9.59,2.131-19.743,3.868-24.078,4.61c-0.622,0.106-1.13,0.194-1.509,0.259
			c-2.007,0.352-3.093,0.829-3.374,1.483c-0.305,0.707,0.286,1.694,1.033,2.946c0.216,0.361,0.439,0.735,0.663,1.137
			c0.657,1.184,1.574,2.744,2.636,4.551c1.724,2.932,3.677,6.256,5.198,9.132c2.38,4.49,4.235,4.357,9.743,3.263
			c0.346-0.067,0.73-0.15,1.145-0.242c5.984-1.33,18.286-4.935,24.588-7.417c2.346-0.923,4.561-1.893,6.581-2.881l0.207-0.102
			l0.06,0.223c0.09,0.335,0.313,0.774,0.548,1.239c0.235,0.464,0.503,0.99,0.697,1.528l0.052,0.142l-0.126,0.082
			C300.505,194.558,281.281,200.192,272.525,202.138z M249.824,172.637c-0.241,0.053-0.442,0.113-0.61,0.182
			c-1.093,0.441-1.717,0.991-1.965,1.731c-0.372,1.111,0.079,2.708,1.383,4.882c0.371,0.618,0.835,1.387,1.359,2.261
			c3.356,5.582,8.973,14.924,10.664,18.009c1.868,3.409,2.611,3.811,9.826,2.471c0.558-0.104,1.218-0.24,1.962-0.405
			c8.661-1.925,27.58-7.46,32.866-10.813c-0.182-0.469-0.418-0.932-0.627-1.346c-0.207-0.408-0.392-0.772-0.507-1.094
			c-1.976,0.959-4.131,1.9-6.41,2.797c-6.317,2.489-18.647,6.103-24.645,7.435l0,0c-0.417,0.093-0.806,0.175-1.152,0.244
			c-5.595,1.111-7.655,1.256-10.153-3.458c-1.519-2.868-3.47-6.188-5.19-9.117c-1.063-1.809-1.981-3.371-2.641-4.56
			c-0.22-0.396-0.442-0.768-0.657-1.126c-0.802-1.344-1.437-2.406-1.056-3.291c0.298-0.689,1.197-1.18,2.835-1.544
			c0.253-0.056,0.53-0.111,0.822-0.162c0.379-0.066,0.889-0.154,1.511-0.26c4.333-0.742,14.479-2.478,24.059-4.607
			c9.593-2.131,16.087-4.088,19.306-5.816c-0.37-1.208-0.771-2.242-1.222-3.147c-2.958,1.166-11.108,4.106-24.578,7.001
			c-11.353,2.438-17.856,2.998-21.741,3.333C251.708,172.371,250.583,172.468,249.824,172.637z"/>
	</g>
	<g>
		<path fill="#A7A9AC" d="M277.625,206.3c-2.224,0.494-4.271,0.885-6.104,1.196c-8.837,1.498-14.68,1.474-14.738,1.473l-0.15,0
			l-0.032-0.148c-0.896-4.03-13.395-25.479-15.245-28.422c-1.946-3.092-2.52-3.08-4.418-3.039l-5.159,0.11
			c-2.287,0.048-2.772-2.058-3.164-3.75c-0.083-0.365-0.163-0.708-0.256-1.026l-0.069-0.237c-0.21-0.706-0.361-1.216-0.084-1.615
			c0.367-0.527,1.358-0.738,4.421-0.939l0.084-0.006c4.944-0.327,13.22-0.874,41.425-6.11c18.632-3.46,23.853-6.209,25.306-7.539
			l0.256,0.279c-1.812,1.659-7.705,4.33-25.493,7.632c-28.226,5.242-36.515,5.789-41.468,6.117l-0.083,0.005
			c-2.443,0.162-3.826,0.333-4.136,0.777c-0.174,0.25-0.05,0.664,0.136,1.292l0.07,0.238c0.097,0.329,0.177,0.677,0.262,1.046
			c0.397,1.72,0.807,3.499,2.786,3.458l5.158-0.11c1.955-0.042,2.688-0.058,4.747,3.216c2.068,3.286,14.1,23.95,15.259,28.394
			c0.959-0.007,6.505-0.108,14.534-1.47c8.125-1.377,20.53-4.364,33.482-10.766l0.169,0.34
			C295.042,201.674,285.294,204.594,277.625,206.3z"/>
	</g>
	<g>
		<path fill="#414042" d="M249.337,211.34c0,0,1.133,6.277,4.354,6.803c3.222,0.526,14.359,4.261,40.934-6.362
			c9.454-3.839,11.144-6.856,11.144-6.856s-0.807-4.188-1.222-5.497C283.409,206.573,269.92,210.245,249.337,211.34z"/>
		<path fill="#262262" d="M276.449,217.662c-12.233,2.718-18.938,1.347-21.803,0.762c-0.378-0.077-0.703-0.144-0.97-0.188
			c-3.25-0.531-4.386-6.622-4.432-6.88l-0.02-0.106l0.107-0.005c9.692-0.517,18.175-1.638,26.695-3.531
			c8.987-1.997,17.889-4.792,28.488-8.375l0.092-0.032l0.029,0.093c0.412,1.299,1.216,5.465,1.224,5.507l0.007,0.034l-0.018,0.03
			c-0.069,0.125-1.813,3.09-11.189,6.898C288.134,214.478,282.006,216.427,276.449,217.662z M249.452,211.429
			c0.168,0.822,1.364,6.149,4.255,6.621c0.271,0.044,0.598,0.111,0.978,0.189c2.852,0.583,9.53,1.947,21.724-0.763
			c5.548-1.233,11.665-3.178,18.182-5.784c8.834-3.587,10.876-6.471,11.079-6.785c-0.079-0.404-0.789-4.045-1.184-5.358
			c-10.564,3.57-19.447,6.357-28.416,8.35C267.57,209.788,259.11,210.91,249.452,211.429z"/>
	</g>
	<g>
		<path fill="#414042" d="M229.674,155.588c0,0-0.179,0.947,0.494,2.223c0.672,1.276,0.503,1.104,1.39,2.761
			c0.888,1.656,2.616,5.937,2.944,6.252c0.33,0.316,52.146-6.745,62.389-11.378l0.47-2.265c0,0-0.763-6.503,0.222-7.28
			c0,0-2.355-7.859-9.819-9.958c-7.463-2.1-28.144,2.216-35.976,6.623C243.956,146.973,235.189,154.751,229.674,155.588z"/>
		<path fill="#262262" d="M286.009,158.647c-10.564,2.348-24.979,4.629-32.633,5.782c-7.599,1.143-18.716,2.679-18.939,2.465
			c-0.178-0.17-0.642-1.203-1.381-2.873c-0.545-1.23-1.164-2.624-1.581-3.404c-0.488-0.913-0.658-1.273-0.823-1.623
			c-0.137-0.292-0.267-0.566-0.568-1.139c-0.68-1.291-0.511-2.244-0.503-2.284l0.013-0.067l0.066-0.009
			c0.172-0.026,0.352-0.061,0.533-0.101c3.417-0.759,7.946-3.887,12.741-7.197c2.913-2.013,5.928-4.093,8.808-5.713
			c3.251-1.83,9.013-3.771,15.412-5.192c6.956-1.545,16.028-2.735,20.636-1.44c7.428,2.09,9.86,9.943,9.884,10.023l0.019,0.062
			l-0.051,0.04c-0.773,0.611-0.396,5.401-0.187,7.195l-0.001,0.03l-0.479,2.313l-0.044,0.02
			C294.951,156.429,291.276,157.477,286.009,158.647z M234.553,166.741c1.195,0.124,33.477-4.294,51.414-8.28
			c5.216-1.159,8.863-2.195,10.841-3.081l0.456-2.202c-0.049-0.426-0.717-6.352,0.21-7.305c-0.233-0.711-2.741-7.871-9.736-9.838
			c-3.825-1.077-11.696-0.524-20.542,1.441c-6.383,1.418-12.126,3.352-15.361,5.173c-2.872,1.616-5.882,3.694-8.792,5.704
			c-4.811,3.321-9.355,6.459-12.808,7.227c-0.162,0.036-0.321,0.066-0.477,0.092c-0.023,0.23-0.056,1.054,0.493,2.095
			c0.304,0.577,0.435,0.854,0.571,1.146c0.165,0.348,0.333,0.707,0.819,1.615c0.421,0.786,1.04,2.183,1.588,3.417
			C233.792,165.213,234.374,166.524,234.553,166.741z"/>
	</g>
	<g>
		<path fill="#414042" d="M180.688,98.123c0,0,2.998,2.12,8.486,1.16c5.487-0.96,13.774,0.179,16.147-2.552
			c0,0,1.112,0.919,4.171,1.276c3.06,0.356,7.992,2.532,6.493-3.241c0,0,4.4,4.448,3.741,9.648
			c-0.658,5.2-9.994,17.994-19.299,16.361C191.125,119.143,182.149,102.657,180.688,98.123z"/>
		<path fill="#262262" d="M204.402,120.751c-1.364,0.303-2.707,0.343-3.99,0.118c-5.058-0.888-9.79-6.078-12.87-10.275
			c-3.608-4.918-6.232-10.236-6.944-12.441l-0.086-0.271l0.231,0.164c0.03,0.021,3.034,2.085,8.414,1.144
			c1.929-0.337,4.22-0.417,6.435-0.495c2.49-0.086,4.842-0.168,6.713-0.583c1.412-0.314,2.375-0.785,2.946-1.442l0.061-0.07
			l0.072,0.059c0.01,0.009,1.134,0.907,4.12,1.255c0.55,0.064,1.146,0.183,1.774,0.31c1.276,0.256,2.596,0.521,3.544,0.31
			c0.495-0.11,0.843-0.338,1.062-0.697c0.374-0.61,0.376-1.634,0.011-3.044l-0.089-0.342l0.248,0.251
			c0.045,0.044,4.425,4.541,3.769,9.727c-0.297,2.343-2.294,6.036-4.969,9.191C212.975,115.832,209.121,119.703,204.402,120.751z
			 M180.862,98.34c0.812,2.324,3.364,7.415,6.832,12.141c3.06,4.169,7.755,9.324,12.752,10.201c1.257,0.221,2.575,0.182,3.914-0.116
			c4.665-1.037,8.485-4.875,10.349-7.072c2.653-3.129,4.633-6.783,4.924-9.092c0.555-4.375-2.552-8.264-3.467-9.3
			c0.292,1.293,0.253,2.222-0.12,2.832c-0.249,0.406-0.635,0.662-1.183,0.784c-0.988,0.22-2.327-0.049-3.623-0.309
			c-0.626-0.126-1.217-0.245-1.758-0.308c-2.658-0.31-3.854-1.036-4.147-1.242c-0.604,0.654-1.583,1.125-2.988,1.437
			c-1.888,0.419-4.249,0.502-6.748,0.589c-2.208,0.077-4.492,0.156-6.407,0.491C184.569,100.184,181.666,98.799,180.862,98.34z"/>
	</g>
	<g>
		<path fill="#FFFFFF" d="M205.323,96.729c0,0-0.363,0.149-1.013,0.385c-4.012,1.449-18.932,6.185-26.187-0.624
			c0,0-4.055-9.789-1.887-12.862c2.168-3.074,5.859-5.708,7.23-5.365c1.372,0.344,9.672,7.958,12.429,10.455
			C198.656,91.215,205.323,96.729,205.323,96.729z"/>
	</g>
	<g>
		<path fill="#A7A9AC" d="M240.008,76.811l-0.003-0.001c-6.376-4.538-29.77-57.106-29.77-57.106
			c1.843,0.064,3.778,0.509,5.796,1.449v0.001c0.976,0.454,1.969,1.024,2.98,1.723c-3.945-8.537-4.81-13.54-2.911-15.526
			c1.619,1.349,8.026,14.508,12.622,25.148C233.319,43.137,240.008,76.811,240.008,76.811z"/>
	</g>
	<g>
		<path fill="#F7941E" d="M249.575,120.651c-2.195,1.479-20.95,15.929-25.725,18.933c-4.774,3.005-6.71,1.296-8.19-0.123
			c-1.482-1.42-4.96-3.952-7.948-5.62c-2.99-1.668-3.824-3.621-6.351-6.25c-2.528-2.628-3.854-2.465-7.948-6.899
			c-4.063-4.399-15.115-23.895-15.286-24.199l3.845,2.446c3.271,3.794,3.293,7.139,7.784,11.416
			c5.008,4.771,10.312,9.625,14.175,8.454c4.514-1.369,11.854-7.4,14.927-13.475c2.477-4.894-18.878-39.938-20.669-45.372
			c-1.866-5.663-11.71-20.333-6.256-28.153c2.992-4.29,9.596-12.421,18.304-12.105c1.843,0.064,3.778,0.509,5.796,1.449v0.001
			c1.838,2.149,3.6,5.157,4.26,8.824c1.279,7.102,9.384,24.737,10.711,28.135c1.13,2.895,6.155,12.404,9.003,18.696
			c0.496,1.093,0.924,2.086,1.256,2.934c2.245,5.727,8.417,24.753,10.428,31.887C253.7,118.764,251.771,119.172,249.575,120.651z"/>
	</g>
	<g>
		<path fill="#58595B" d="M235.953,36.605c0,0-4.98,0.329-2.49,7.161c2.489,6.833,1.667,10.125,5.824,7.841
			s12.944-5.597,14.137-5.474c1.194,0.123,2.512-0.947,1.688-2.902c-0.822-1.955-1.275-10.989-5.475-10.639
			C245.44,32.941,240.006,34.732,235.953,36.605z"/>
	</g>
	<g>
		<path fill="#FFFFFF" d="M251.632,38.878c-0.263-0.751-1.414-0.895-2.468-0.545l-10.013,3.489c-0.791,0.277-1.626,1.005-1.35,1.797
			c0.276,0.791,1.629,0.671,2.421,0.395l9.711-3.09C251.231,40.635,251.895,39.629,251.632,38.878z"/>
	</g>
	<g>
		<path fill="#58595B" d="M235.327,35.539c0,0-3.778,2.238-4.746-0.365c-0.967-2.604-2.974-7.697-3.241-8.901
			s-0.689-2.665,2.613-3.982c3.304-1.317,10.209-3.046,12.78-2.84c2.572,0.206,3.603,0.463,4.6,2.768
			c0.998,2.305,3.252,6.761,3.345,7.615s0.042,1.935-1.842,1.77C246.953,31.439,238.426,33.743,235.327,35.539z"/>
	</g>
	<g>
		<path fill="#FFFFFF" d="M245.898,24.668c-0.284-0.812-3.693-0.556-4.951-0.365l-6.151,1.613c-1.55,0.626-2.563,1.467-2.263,2.323
			s1.51,0.815,2.205,0.572l9.965-2.351C245.852,26.237,246.182,25.481,245.898,24.668z"/>
	</g>
	<g>
		<path fill="#58595B" d="M223.751,5.515c0,0-5.63,1.135-4.634,4.315c0.999,3.179,3.244,4.354,4.236,6.503s1.177,6.288,5.01,5.047
			c3.833-1.24,9.503-2.838,12.812-2.821c3.308,0.018,4.8,1.046,3.997-1.691s-4.285-8.242-7.349-9.621
			C237.824,7.248,229.226,5.057,223.751,5.515z"/>
	</g>
	<g>
		<path fill="#58595B" d="M254.669,59.607c0.304,1.368,7.187,18.076,8.211,26.018c0.297,2.302-1.472,4.312-2.583,4.559
			s-3.256-0.164-4.444-2.511c-3.813-7.521-7.884-23.689-8.452-24.944c-1.92-4.238,0.613-5.579,2.684-6.039
			C252.156,56.23,254.277,57.843,254.669,59.607z"/>
	</g>
	<g>
		<path fill="#58595B" d="M277.841,56.742c0.288,1.298,3.649,18.719,3.704,27.165c-0.372,2.694-0.771,5.711-2.438,6.082
			c-0.769,0.17-3.021-1.758-3.921-5.834c-1.889-8.57-2.954-25.105-3.179-26.116c-0.397-1.79,0.155-3.436,1.919-3.828
			C275.691,53.818,277.444,54.952,277.841,56.742z"/>
	</g>
	<g>
		<path fill="#58595B" d="M220.948,147.655l1.604-0.357c1.236,0.755,0.606,0.992,2.032,0.19
			c1.427-0.803,17.715-12.781,19.351-13.727c1.637-0.947,9.602-6.216,11.886-9.056c2.284-2.84,5.68-6.801,3.652-14.611
			c-2.026-7.81,5.063-14.828,9.684-15.466c4.62-0.638,8.993,0.237,12.142,6.534s-0.041,10.311,1.749,13.12
			c1.791,2.81,4.662,6.544,8.057,9.579c3.396,3.036,5.841,7.042,5.544,7.895c-0.297,0.852-0.965,0.903-0.965,0.903
			s1.07,2.192,0.885,3.108s-1.134,1.223-0.87,1.651c0.263,0.428,1.251,2.249,1.035,2.588c-0.217,0.34-0.315,1.432-1.146,0.644
			c-1.356-1.287-2.642-3.689-5.512-5.675c-3.876-2.681-5.958-1.883-5.958-1.883c-4.322,0.668-26.773,4.395-32.032,8.479
			c-5.259,4.084-17.802,12.605-20.374,12.399c-2.573-0.207-1.883-0.165-2.573-0.207c-0.688-0.041-0.267-1.009-0.267-1.009
			l-0.721,0.063c0,0-2.007-1.822-2.805-1.904c-0.797-0.082-0.797-0.082-0.797-0.082S221.709,148.198,220.948,147.655z"/>
	</g>
	<g>
		<path fill="#FFFFFF" d="M294.878,131.227c0,0-3.221-4.002-5.669-5.395c-2.447-1.393-7.973-0.456-9.475-0.22
			c-1.503,0.237-25.398,2.91-34.328,9.954c-8.931,7.044-18.397,13.425-19.036,14.052c-0.637,0.628-0.287,1.327,0.854,0.783
			c1.143-0.545,12.609-8.856,14.372-10.108s7.636-6.25,15.179-8.412c7.544-2.163,18.821-3.891,22.341-4.673s8.51-1.502,13.171,2.419
			C296.949,133.545,295.525,133.262,294.878,131.227z"/>
		<path fill="#58595B" d="M226.784,150.658c-0.369,0.083-0.651,0.004-0.77-0.214c-0.132-0.241-0.018-0.592,0.29-0.895
			c0.218-0.214,1.357-1.024,3.244-2.365c3.683-2.617,9.847-6.998,15.799-11.693c3.641-2.872,10.148-5.363,19.345-7.407
			c6.446-1.433,12.379-2.214,14.328-2.472c0.349-0.045,0.587-0.077,0.699-0.095l0.156-0.024c1.727-0.274,6.982-1.109,9.382,0.255
			c2.435,1.387,5.663,5.378,5.695,5.419l0.016,0.031c0.162,0.506,0.408,1.007,0.694,1.412c0.021,0.029,0.044,0.063,0.024,0.111
			l-0.02,0.047l-0.051,0.011c-0.054,0.01-0.081-0.021-0.11-0.055c-0.282-0.318-1.165-1.25-3.28-3.027
			c-4.397-3.7-9.084-3.29-13.089-2.4c-1.046,0.232-2.737,0.542-4.881,0.934c-3.366,0.615-7.559,1.379-11.592,2.276
			c-2.246,0.499-4.218,0.991-5.862,1.462c-6.521,1.87-11.729,5.815-14.23,7.712c-0.382,0.29-0.684,0.519-0.92,0.687
			c-0.338,0.24-1.032,0.739-1.941,1.393c-4.023,2.893-11.514,8.278-12.445,8.723C227.093,150.566,226.932,150.625,226.784,150.658z
			 M264.733,128.27c-9.168,2.037-15.651,4.517-19.268,7.37c-5.957,4.699-12.123,9.081-15.807,11.699
			c-1.815,1.291-3.015,2.143-3.221,2.347c-0.279,0.274-0.33,0.533-0.257,0.668c0.11,0.203,0.516,0.192,1.002-0.04
			c0.917-0.437,8.685-6.022,12.417-8.707c0.909-0.654,1.604-1.153,1.941-1.394c0.233-0.165,0.535-0.394,0.917-0.682
			c2.51-1.904,7.736-5.865,14.291-7.743c1.648-0.472,3.624-0.965,5.874-1.465c4.037-0.897,8.23-1.663,11.6-2.277
			c2.141-0.391,3.831-0.7,4.873-0.932c4.05-0.9,8.792-1.313,13.253,2.438c1.378,1.159,2.236,1.963,2.747,2.471
			c-0.118-0.241-0.221-0.495-0.302-0.749c-0.21-0.259-3.299-4.031-5.632-5.359c-2.341-1.332-7.547-0.505-9.258-0.234l-0.156,0.026
			c-0.113,0.017-0.354,0.048-0.703,0.095C277.098,126.058,271.172,126.838,264.733,128.27z"/>
	</g>
	<g>
		<path fill="#FFFFFF" d="M232.142,150.861c0,0-3.837,2.213-1.13,1.708c2.705-0.504,14.57-9.651,18.15-11.904
			c3.581-2.253,6.824-4.043,16.783-6.354c9.961-2.31,19.386-4.502,22.854-2.454c3.468,2.048,4.579,2.578,5.738,4.07
			c1.16,1.491,0.49-1.407-0.927-2.533c-1.416-1.126-4.925-4.233-9.175-3.678c-4.249,0.555-29.259,4.543-34.875,8.804
			C243.561,143.075,232.142,150.861,232.142,150.861z"/>
		<path fill="#58595B" d="M231.094,152.651c-0.016,0.011-0.044,0.01-0.065,0.012c-0.676,0.126-0.994,0.098-1.065-0.094
			c-0.154-0.417,1.439-1.391,2.132-1.789c0.107-0.074,11.479-7.834,17.409-12.334c2.249-1.707,7.761-3.544,16.381-5.459
			c7.688-1.708,15.949-3.025,18.538-3.363c4.02-0.525,7.35,2.167,8.95,3.459c0.107,0.086,0.207,0.166,0.297,0.238
			c1.007,0.8,1.651,2.463,1.541,2.941c-0.028,0.128-0.106,0.164-0.15,0.173c-0.147,0.033-0.331-0.105-0.599-0.449
			c-1-1.287-1.95-1.843-4.488-3.328c-0.373-0.219-0.778-0.456-1.223-0.719c-2.689-1.587-8.906-0.654-17.416,1.237
			c-1.731,0.385-3.553,0.808-5.313,1.216l-0.055,0.013c-9.816,2.277-13.137,4.065-16.754,6.341
			c-1.131,0.712-3.079,2.104-5.335,3.718C239.046,147.919,233.034,152.22,231.094,152.651z M265.927,133.172
			c-8.595,1.91-14.081,3.735-16.309,5.425c-5.935,4.503-17.309,12.264-17.422,12.342c-1.16,0.669-2.116,1.399-2.056,1.564
			c0,0.001,0.067,0.12,0.853-0.026c1.827-0.338,7.906-4.686,12.774-8.168c2.258-1.615,4.207-3.009,5.345-3.725
			c3.633-2.286,6.966-4.082,16.812-6.364l0.055-0.013c1.762-0.409,3.582-0.831,5.315-1.216c8.553-1.9,14.811-2.834,17.553-1.215
			c0.444,0.263,0.85,0.5,1.222,0.718c2.563,1.5,3.521,2.062,4.544,3.376c0.289,0.372,0.396,0.381,0.406,0.381
			c-0.002-0.003,0.021-0.037,0.015-0.158c-0.029-0.513-0.576-1.905-1.481-2.624c-0.091-0.072-0.189-0.152-0.297-0.239
			c-1.58-1.276-4.869-3.933-8.806-3.418C281.863,130.149,273.608,131.465,265.927,133.172z"/>
	</g>
	<g>
		
			<ellipse transform="matrix(0.9762 -0.2169 0.2169 0.9762 -16.5289 61.3975)" fill="#C2B59B" cx="271.398" cy="105.987" rx="8.822" ry="8.633"/>
		<path fill="#58595B" d="M273.291,114.507c-4.8,1.066-9.555-1.888-10.599-6.586c-1.044-4.697,2.013-9.388,6.813-10.454
			s9.555,1.888,10.599,6.585S278.09,113.441,273.291,114.507z M269.545,97.652c-4.698,1.044-7.688,5.632-6.668,10.228
			c1.021,4.596,5.674,7.486,10.372,6.442s7.688-5.632,6.668-10.229C278.896,99.498,274.244,96.608,269.545,97.652z"/>
	</g>
	<g>
		<path fill="#A7A9AC" d="M263.299,60.392l-15.07-41.602c2.343,5.085,4.644,10.733,6.245,13.699
			c-0.188-2.674-0.776-8.117-1.791-13.305c-0.696-3.562-2.209-7.187-1.811-9.024c0.083-0.38,0.301-0.747,0.61-1.08
			c1.731,1.304,4.004,4.457,6.735,11.385c1.131,2.87,2.025,5.913,2.729,8.989C264.403,44.535,263.299,60.392,263.299,60.392z"/>
	</g>
	<g>
		<path fill="#58595B" d="M265.313,32.283c0,0-2.42-0.107-2.964,0.658c-0.543,0.766,1.293,7.941,1.381,9.023
			c0.087,1.082-0.229,1.995,2.084,2.193c2.311,0.199,12.134,3.588,13.466,4.329c1.329,0.741,1.165-1.749,0.548-4.527
			c-0.617-2.779-0.198-6.435-4.15-8.472C271.726,33.449,265.684,32.288,265.313,32.283z"/>
	</g>
	<g>
		<path fill="#FFFFFF" d="M270.306,38.43c0,0-2.356-0.981-2.635-0.491c-0.28,0.491,0.125,1.437,2.47,2.083
			c2.347,0.645,6.16,2.065,5.996,1.324C275.972,40.604,273.908,39.185,270.306,38.43z"/>
	</g>
	<g>
		<path fill="#58595B" d="M263.354,30.905c0,0-1.794-0.055-2.391-3.032c-0.597-2.978-1.595-5.348-1.788-6.405
			c-0.193-1.059,0.17-2.63,3.058-2.17c2.888,0.46,9.439,2.244,11.175,3.931s2.346,2.978,2.676,4.459
			c0.329,1.481,1.844,6.846,1.659,7.47c-0.186,0.624,0.069,0.308-3.972-1.255C269.73,32.338,265.401,30.708,263.354,30.905z"/>
	</g>
	<g>
		<path fill="#FFFFFF" d="M267.418,25.142c0,0-1.865-0.816-1.859,0.089c0.008,0.906,4.217,1.772,5.453,2.378
			c1.235,0.606,4.343,2.054,2.12,0.215C270.911,25.986,267.418,25.142,267.418,25.142z"/>
	</g>
	<g>
		<path fill="#58595B" d="M273.972,20.436c0.198,1.196,0.262,2.179,0.284,2.53c0.053,0.82-1.679-0.849-3.297-1.72
			c-1.621-0.87-7.081-2.703-9.392-2.903c-2.312-0.197-3.116-0.602-3.425-1.505c-0.31-0.903-1.31-3.468-1.31-3.468
			c-0.36-1.298-1.454-2.392-2.238-3.189c-0.786-0.799-0.229-1.439,0.189-2.019c0.122-0.169,0.475-0.342,0.945-0.509
			c5.08,0.616,10.507,1.958,14.404,6.974C271.473,16.348,272.751,18.297,273.972,20.436z"/>
	</g>
	<g>
		<path fill="#A7A9AC" d="M286.832,62.941c-0.687,1.577-2.208-3.527-2.634-7.193c-0.42-3.626-5.798-24.369-5.915-24.819
			c0.562,1.589,1.104,3.125,1.617,4.463c0.808,2.104-0.69-8.568,1.73-10.69c0.686,2.658,2.11,8.108,3.278,12.092
			C286.512,42.258,287.517,61.361,286.832,62.941z"/>
	</g>
	<g>
		<path fill="#58595B" d="M294.966,75.644c0,0,3.925,2.497,1.235-0.274C293.512,72.599,291.165,72.117,294.966,75.644z"/>
	</g>
	<g>
		<path fill="#58595B" d="M294.802,85.399c0,0-1.899-1.651-1.875-0.62c0.022,1.032,1.778,1.937,2.286,2.472
			S298.643,89.858,294.802,85.399z"/>
	</g>
	<g>
		<path fill="#58595B" d="M294.925,97.033c0,0-1.633-2.099-1.577-0.686c0.055,1.413,2.908,3.5,2.908,3.5
			S296.613,99.379,294.925,97.033z"/>
	</g>
	<g>
		<path fill="#58595B" d="M294.184,108.86c0,0-1.386-2.155-1.742-1.428c-0.356,0.728,0.164,1.907,1.419,3.183
			c1.256,1.275,2.821,2.931,1.297-0.288C294.703,109.366,294.184,108.86,294.184,108.86z"/>
	</g>
	<g>
		<path fill="#A7A9AC" d="M205.323,96.729c0,0-0.363,0.149-1.013,0.385c-5.744-3.122-13.756-11.005-15.822-13.695
			c-2.87-3.735-5.021-5.156-5.021-5.156c1.372,0.344,9.672,7.958,12.429,10.455C198.656,91.215,205.323,96.729,205.323,96.729z"/>
	</g>
	<g>
		<path fill="#58595B" d="M230.708,82.203c-0.343-0.396-0.99-0.396-1.447,0l0,0l-6.194,5.377c-0.456,0.396-0.548,1.038-0.205,1.434
			c0.343,0.396,0.991,0.396,1.447,0l6.196-5.377l0,0C230.96,83.24,231.052,82.599,230.708,82.203z"/>
	</g>
	<g>
		<path fill="#58595B" d="M235.135,94.132c-0.284-0.441-0.925-0.534-1.434-0.208l0,0l-6.904,4.429
			c-0.509,0.327-0.691,0.948-0.409,1.389c0.283,0.441,0.925,0.534,1.433,0.208l6.905-4.43l0,0
			C235.236,95.195,235.417,94.574,235.135,94.132z"/>
	</g>
	<g>
		<path fill="#58595B" d="M239.928,105.557c-0.283-0.441-0.949-0.519-1.486-0.174l0,0l-7.298,4.682
			c-0.537,0.345-0.743,0.982-0.462,1.423c0.284,0.44,0.949,0.519,1.486,0.175l7.298-4.683l0,0
			C240.004,106.634,240.21,105.998,239.928,105.557z"/>
	</g>
	<g>
		<path fill="#58595B" d="M216.498,121.473c-0.309-0.424-0.91-0.512-1.347-0.196l0,0l-5.917,4.292
			c-0.436,0.316-0.539,0.917-0.231,1.341c0.308,0.423,0.909,0.512,1.346,0.196l5.917-4.292l0,0
			C216.701,122.497,216.804,121.896,216.498,121.473z"/>
	</g>
	<g>
		<path fill="#58595B" d="M223.121,129.638c-0.308-0.425-0.861-0.548-1.236-0.277l0,0l-5.091,3.692
			c-0.373,0.272-0.428,0.836-0.12,1.261c0.307,0.423,0.86,0.547,1.236,0.274l5.089-3.692l0,0
			C223.374,130.626,223.428,130.062,223.121,129.638z"/>
	</g>
	<g>
		<path fill="#58595B" d="M243.66,115.936c-0.283-0.441-0.947-0.519-1.485-0.174l0,0l-7.299,4.682
			c-0.537,0.345-0.744,0.982-0.461,1.423c0.283,0.44,0.948,0.519,1.485,0.174l7.299-4.682l0,0
			C243.736,117.014,243.942,116.376,243.66,115.936z"/>
	</g>
	<g>
		<path fill="#6D6E71" d="M283.728,24.235c0,0,0.357,1.556,0.983,4.277c0.308,1.363,0.702,3.011,1.119,4.913
			c0.402,1.904,0.721,4.084,1,6.462c0.28,2.379,0.531,4.962,0.758,7.697c0.226,2.735,0.431,5.622,0.572,8.614
			c0.073,1.495,0.132,3.017,0.161,4.559c0.003,0.387,0.005,0.774,0.008,1.163c-0.009,0.388-0.018,0.777-0.026,1.167
			c-0.006,0.778-0.025,1.562-0.019,2.346c0.044,3.132,0.133,6.324,0.231,9.514c0.192,6.381,0.384,12.762,0.563,18.744
			c0.017,0.749,0.031,1.49,0.047,2.226c0.006,0.368,0.019,0.731,0.019,1.099c0.002,0.363-0.006,0.728-0.016,1.09
			c-0.052,1.445-0.18,2.852-0.302,4.218c-0.248,2.728-0.474,5.319-0.229,7.691c0.121,1.183,0.365,2.306,0.771,3.309
			c0.092,0.253,0.216,0.49,0.325,0.73c0.13,0.228,0.243,0.462,0.389,0.673c0.266,0.437,0.59,0.82,0.909,1.176
			c1.349,1.403,2.548,2.599,3.604,3.514c0.513,0.472,1.003,0.858,1.417,1.208c0.426,0.335,0.786,0.622,1.09,0.841
			c0.302,0.221,0.536,0.386,0.698,0.492c0.159,0.11,0.245,0.16,0.245,0.16s-0.087-0.049-0.248-0.157
			c-0.164-0.103-0.399-0.265-0.705-0.481c-0.307-0.215-0.671-0.496-1.103-0.826c-0.42-0.344-0.915-0.724-1.437-1.189
			c-1.069-0.9-2.292-2.083-3.659-3.464c-0.334-0.361-0.667-0.745-0.945-1.187c-0.151-0.213-0.27-0.45-0.406-0.682
			c-0.114-0.242-0.245-0.482-0.344-0.739c-0.218-0.507-0.38-1.049-0.515-1.61c-0.139-0.562-0.229-1.146-0.299-1.744
			c-0.267-2.399-0.059-5.009,0.167-7.739c0.111-1.367,0.227-2.77,0.267-4.203c0.02-0.714,0.002-1.442-0.016-2.175
			c-0.018-0.734-0.035-1.475-0.053-2.223c-0.195-5.981-0.404-12.362-0.612-18.742c-0.091-3.191-0.172-6.38-0.207-9.532
			c-0.004-0.787,0.018-1.568,0.025-2.347c0.01-0.388,0.019-0.775,0.029-1.161c-0.002-0.386-0.003-0.771-0.005-1.154
			c-0.025-1.537-0.08-3.056-0.149-4.549c-0.282-5.974-0.695-11.545-1.211-16.302c-0.069-0.594-0.138-1.176-0.204-1.744
			c-0.075-0.567-0.146-1.122-0.219-1.662c-0.153-1.079-0.308-2.098-0.502-3.053c-0.387-1.904-0.758-3.561-1.046-4.926
			C284.064,25.795,283.728,24.235,283.728,24.235z"/>
	</g>
	<g>
		<path fill="#A7A9AC" d="M294.553,119.43c0,0,0.085-0.039,0.229-0.136c0.142-0.1,0.333-0.265,0.55-0.5
			c0.214-0.239,0.436-0.561,0.646-0.953c0.091-0.204,0.204-0.412,0.281-0.65c0.041-0.118,0.094-0.235,0.131-0.36
			c0.036-0.126,0.073-0.255,0.112-0.386c0.042-0.13,0.068-0.269,0.096-0.408c0.03-0.14,0.06-0.281,0.089-0.426
			c0.036-0.294,0.093-0.594,0.117-0.907c0.058-0.627,0.068-1.289,0.059-1.978c-0.009-0.346-0.011-0.7-0.031-1.052
			c-0.009-0.177-0.016-0.354-0.024-0.534c-0.013-0.178-0.026-0.357-0.04-0.538c-0.047-0.72-0.16-1.443-0.313-2.153l-0.14-0.525
			c-0.025-0.087-0.043-0.177-0.073-0.262l-0.091-0.254c-0.063-0.169-0.121-0.34-0.186-0.507c-0.077-0.164-0.153-0.325-0.229-0.485
			l-0.112-0.242l-0.136-0.229c-0.09-0.153-0.178-0.305-0.267-0.456c-0.192-0.292-0.401-0.569-0.603-0.844
			c-0.225-0.257-0.44-0.515-0.66-0.76c-0.234-0.234-0.464-0.461-0.687-0.683c-0.475-0.413-0.915-0.817-1.361-1.144
			c-0.219-0.167-0.426-0.333-0.628-0.482c-0.207-0.145-0.401-0.283-0.586-0.412c-0.184-0.129-0.356-0.251-0.515-0.363
			c-0.165-0.105-0.315-0.202-0.451-0.289c-0.542-0.354-0.852-0.555-0.852-0.555s0.323,0.179,0.89,0.492
			c0.143,0.08,0.298,0.167,0.469,0.263c0.166,0.103,0.345,0.214,0.538,0.333c0.191,0.12,0.396,0.247,0.61,0.38
			c0.213,0.139,0.427,0.298,0.654,0.458c0.465,0.31,0.928,0.701,1.422,1.108c0.234,0.219,0.475,0.445,0.721,0.675
			c0.234,0.244,0.459,0.507,0.695,0.767c0.213,0.28,0.434,0.563,0.639,0.862c0.095,0.156,0.19,0.312,0.286,0.469l0.142,0.238
			l0.12,0.25c0.079,0.167,0.161,0.335,0.241,0.504c0.068,0.174,0.13,0.351,0.196,0.527l0.097,0.264
			c0.031,0.089,0.051,0.181,0.077,0.271l0.148,0.545c0.154,0.735,0.267,1.479,0.309,2.211c0.013,0.182,0.028,0.365,0.036,0.546
			c0.006,0.182,0.01,0.363,0.015,0.542c0.015,0.36,0.011,0.711,0.013,1.058c0.001,0.698-0.033,1.377-0.11,2.013
			c-0.036,0.319-0.1,0.626-0.149,0.925c-0.037,0.147-0.073,0.292-0.109,0.433c-0.034,0.141-0.068,0.281-0.117,0.414
			c-0.159,0.539-0.387,1.006-0.609,1.403c-0.238,0.389-0.483,0.705-0.715,0.935c-0.233,0.23-0.445,0.377-0.593,0.467
			C294.64,119.398,294.553,119.43,294.553,119.43z"/>
	</g>
	<g>
		<path fill="#A7A9AC" d="M296.32,106.96c0,0,0.053-0.072,0.135-0.215c0.084-0.143,0.19-0.362,0.311-0.646
			c0.24-0.566,0.487-1.42,0.586-2.468c0.032-0.26,0.036-0.535,0.052-0.817c-0.004-0.284,0.009-0.576-0.014-0.877
			c-0.014-0.299-0.036-0.612-0.061-0.931c-0.019-0.32-0.038-0.646-0.058-0.978c-0.035-0.663-0.084-1.344-0.159-2.03
			c-0.078-0.685-0.187-1.377-0.393-2.039c-0.199-0.664-0.483-1.297-0.852-1.867c-0.359-0.577-0.823-1.069-1.302-1.507
			c-0.125-0.105-0.248-0.21-0.37-0.313c-0.113-0.101-0.257-0.195-0.38-0.292c-0.255-0.191-0.505-0.379-0.748-0.563
			c-0.243-0.184-0.479-0.361-0.708-0.534c-0.23-0.171-0.444-0.348-0.665-0.493c-0.434-0.304-0.831-0.582-1.185-0.828
			c-0.348-0.255-0.671-0.447-0.93-0.617c-0.262-0.166-0.462-0.306-0.605-0.388c-0.143-0.086-0.218-0.132-0.218-0.132
			s0.079,0.04,0.228,0.114c0.149,0.072,0.363,0.19,0.633,0.342c0.27,0.154,0.605,0.328,0.97,0.562
			c0.366,0.229,0.782,0.487,1.234,0.77c0.449,0.287,0.912,0.627,1.413,0.975c0.249,0.175,0.504,0.355,0.765,0.539
			c0.132,0.096,0.263,0.176,0.396,0.289c0.128,0.104,0.258,0.211,0.389,0.318c0.505,0.448,1.009,0.949,1.391,1.558
			c0.392,0.599,0.696,1.267,0.906,1.959c0.212,0.694,0.319,1.409,0.395,2.108c0.075,0.7,0.102,1.39,0.127,2.053
			c0.022,0.665,0.056,1.3,0.067,1.916c0.013,0.308-0.008,0.607-0.016,0.896c-0.027,0.289-0.044,0.568-0.088,0.833
			c-0.034,0.267-0.087,0.519-0.137,0.758c-0.062,0.237-0.114,0.462-0.185,0.668c-0.13,0.416-0.274,0.768-0.414,1.046
			c-0.136,0.28-0.266,0.489-0.36,0.626C296.377,106.893,296.32,106.96,296.32,106.96z"/>
	</g>
	<g>
		<path fill="#A7A9AC" d="M296.768,95.143c0,0,0.095-0.002,0.251-0.071c0.153-0.069,0.362-0.226,0.511-0.503
			c0.149-0.276,0.236-0.657,0.246-1.095c0.005-0.437-0.038-0.947-0.021-1.498c0.011-0.556,0.05-1.153,0.101-1.782
			c0.022-0.313,0.048-0.636,0.073-0.965c0.012-0.165,0.023-0.33,0.035-0.499c0.009-0.167,0.017-0.336,0.025-0.507
			c0.024-0.34,0.01-0.685,0.013-1.033c-0.003-0.174-0.026-0.346-0.037-0.521c-0.013-0.176-0.024-0.346-0.055-0.526
			c-0.051-0.355-0.113-0.703-0.199-1.052c-0.085-0.348-0.189-0.691-0.322-1.022c-0.253-0.668-0.624-1.285-1.077-1.82
			c-0.461-0.53-0.986-0.983-1.558-1.355c-0.565-0.396-1.125-0.735-1.657-1.069c-0.541-0.319-1.047-0.631-1.523-0.904
			c-0.949-0.554-1.744-1.009-2.305-1.323c-0.558-0.315-0.877-0.496-0.877-0.496s0.083,0.038,0.239,0.111
			c0.154,0.074,0.385,0.177,0.673,0.32c0.287,0.142,0.638,0.314,1.038,0.512c0.4,0.199,0.852,0.426,1.337,0.686
			c0.489,0.252,1.011,0.543,1.563,0.851c0.545,0.32,1.134,0.65,1.699,1.036c0.587,0.37,1.163,0.833,1.649,1.393
			c0.482,0.563,0.882,1.218,1.152,1.92c0.138,0.35,0.245,0.71,0.33,1.073c0.088,0.36,0.151,0.73,0.201,1.089
			c0.028,0.176,0.042,0.365,0.052,0.546c0.01,0.182,0.029,0.364,0.029,0.543c-0.01,0.358-0.002,0.714-0.033,1.059
			c-0.011,0.173-0.022,0.344-0.034,0.514c-0.017,0.168-0.032,0.335-0.049,0.501c-0.034,0.329-0.069,0.651-0.103,0.964
			c-0.066,0.627-0.13,1.217-0.164,1.759c-0.028,0.271-0.018,0.537-0.028,0.787c-0.011,0.25-0.007,0.488-0.027,0.716
			c-0.036,0.452-0.149,0.845-0.322,1.124c-0.171,0.284-0.407,0.427-0.567,0.485C296.862,95.149,296.768,95.143,296.768,95.143z"/>
	</g>
	<g>
		<path fill="#A7A9AC" d="M297.352,83.506c0,0,0.01-0.018,0.027-0.053c0.02-0.034,0.044-0.087,0.077-0.156
			c0.03-0.069,0.073-0.152,0.114-0.254c0.042-0.103,0.09-0.219,0.143-0.351c0.057-0.129,0.101-0.28,0.155-0.442
			c0.05-0.163,0.121-0.333,0.166-0.526c0.095-0.382,0.216-0.808,0.291-1.287c0.021-0.119,0.044-0.24,0.066-0.363
			c0.024-0.124,0.048-0.25,0.056-0.379c0.028-0.259,0.056-0.526,0.086-0.801c0.039-0.274,0.037-0.559,0.045-0.849
			s0.016-0.586,0.024-0.887c-0.014-0.606-0.033-1.23-0.093-1.859c-0.059-0.628-0.146-1.265-0.304-1.879
			c-0.152-0.616-0.38-1.21-0.712-1.725c-0.339-0.51-0.778-0.933-1.287-1.231c-0.521-0.315-1.024-0.62-1.502-0.908
			c-0.48-0.279-0.937-0.542-1.356-0.786c-1.683-0.98-2.804-1.633-2.804-1.633s0.294,0.137,0.805,0.386
			c0.254,0.126,0.563,0.279,0.919,0.455c0.354,0.176,0.755,0.373,1.186,0.602c0.433,0.227,0.901,0.473,1.396,0.733
			c0.49,0.269,1,0.561,1.528,0.864c0.546,0.308,1.054,0.76,1.42,1.316c0.366,0.558,0.611,1.191,0.774,1.833
			c0.16,0.644,0.246,1.299,0.301,1.941c0.06,0.645,0.06,1.28,0.062,1.89c-0.016,0.307-0.031,0.608-0.047,0.904
			c-0.017,0.294-0.025,0.584-0.075,0.862c-0.04,0.279-0.079,0.55-0.116,0.812c-0.015,0.131-0.045,0.258-0.074,0.382
			c-0.029,0.125-0.059,0.247-0.086,0.366c-0.027,0.119-0.055,0.237-0.081,0.351c-0.023,0.115-0.055,0.225-0.093,0.331
			c-0.069,0.213-0.135,0.414-0.196,0.604c-0.058,0.191-0.14,0.359-0.2,0.519c-0.066,0.16-0.12,0.308-0.187,0.435
			c-0.122,0.258-0.228,0.456-0.308,0.586c-0.037,0.066-0.066,0.117-0.09,0.149C297.363,83.488,297.352,83.506,297.352,83.506z"/>
	</g>
	<g>
		<path d="M262.934,180.82c0.213,0.111,0.477,0.131,0.791,0.062c0.252-0.056,0.438-0.123,0.557-0.203l-0.047-0.21l-0.438,0.098
			c-0.036,0.008-0.069,0.003-0.101-0.017c-0.03-0.02-0.05-0.047-0.058-0.084l-0.124-0.556c-0.008-0.036-0.002-0.069,0.018-0.099
			c0.021-0.029,0.048-0.048,0.084-0.056l1.34-0.297c0.036-0.008,0.069-0.002,0.101,0.015c0.03,0.019,0.049,0.046,0.057,0.083
			l0.327,1.469c0.005,0.025,0.001,0.052-0.012,0.079c-0.013,0.028-0.03,0.049-0.055,0.063c-0.189,0.11-0.409,0.213-0.662,0.31
			c-0.251,0.098-0.53,0.18-0.834,0.247c-0.689,0.153-1.246,0.137-1.671-0.049c-0.425-0.185-0.699-0.555-0.823-1.109
			c-0.12-0.544-0.027-1.018,0.278-1.419c0.308-0.396,0.766-0.662,1.373-0.797c0.296-0.066,0.567-0.106,0.813-0.122
			c0.245-0.014,0.446-0.016,0.601-0.003c0.023,0.001,0.046,0.01,0.07,0.026c0.022,0.017,0.038,0.036,0.046,0.058l0.199,0.566
			c0.017,0.046,0.011,0.087-0.017,0.125c-0.026,0.037-0.064,0.054-0.115,0.05c-0.161-0.011-0.352-0.014-0.573-0.009
			c-0.107,0.004-0.215,0.011-0.322,0.023c-0.107,0.012-0.213,0.03-0.319,0.053c-0.33,0.073-0.576,0.216-0.74,0.428
			c-0.155,0.21-0.202,0.452-0.142,0.726C262.591,180.524,262.725,180.708,262.934,180.82z"/>
		<path d="M267.261,177.602c-0.008-0.034-0.002-0.065,0.019-0.097c0.02-0.03,0.048-0.05,0.083-0.058l0.863-0.191
			c0.033-0.007,0.065-0.001,0.096,0.018c0.03,0.021,0.05,0.046,0.058,0.08l0.473,2.126c0.09,0.404-0.002,0.725-0.274,0.961
			c-0.252,0.214-0.647,0.381-1.188,0.501c-0.559,0.124-0.989,0.141-1.294,0.051c-0.336-0.102-0.552-0.368-0.647-0.801l-0.463-2.084
			c-0.008-0.034-0.002-0.065,0.019-0.097c0.019-0.03,0.047-0.049,0.083-0.058l0.857-0.19c0.037-0.008,0.07-0.002,0.102,0.017
			c0.03,0.021,0.049,0.046,0.057,0.081l0.383,1.724c0.043,0.192,0.119,0.319,0.228,0.379c0.108,0.062,0.27,0.068,0.48,0.021
			c0.201-0.045,0.337-0.119,0.407-0.225c0.071-0.105,0.084-0.254,0.042-0.445L267.261,177.602z"/>
		<path d="M269.39,180.444c-0.033,0.007-0.065,0.001-0.096-0.018c-0.03-0.02-0.05-0.046-0.057-0.08l-0.674-3.031
			c-0.007-0.033-0.001-0.065,0.018-0.096c0.02-0.03,0.046-0.05,0.08-0.058l2.44-0.542c0.033-0.007,0.065,0,0.096,0.019
			c0.03,0.02,0.051,0.046,0.058,0.08l0.136,0.611c0.008,0.036,0.002,0.07-0.018,0.1c-0.02,0.031-0.046,0.05-0.079,0.058
			l-1.406,0.313l0.074,0.334l1.201-0.267c0.033-0.007,0.065-0.001,0.097,0.019c0.031,0.019,0.05,0.046,0.057,0.079l0.135,0.603
			c0.008,0.036,0.002,0.069-0.018,0.101c-0.02,0.03-0.047,0.049-0.08,0.057l-1.2,0.271l0.078,0.351l1.519-0.337
			c0.036-0.008,0.07-0.001,0.1,0.018s0.048,0.048,0.056,0.085l0.136,0.611c0.007,0.033,0.002,0.065-0.016,0.096
			c-0.019,0.03-0.047,0.049-0.083,0.057L269.39,180.444z"/>
		<path d="M273.18,178.385l0.23,1.034c0.007,0.033,0,0.066-0.019,0.096c-0.02,0.03-0.048,0.049-0.084,0.058l-0.929,0.207
			c-0.034,0.007-0.066,0.001-0.097-0.018c-0.031-0.019-0.05-0.046-0.058-0.08l-0.673-3.03c-0.008-0.034-0.002-0.066,0.019-0.096
			c0.02-0.03,0.046-0.05,0.079-0.058l2.101-0.467c0.36-0.08,0.666-0.064,0.92,0.045c0.273,0.122,0.439,0.323,0.503,0.605
			c0.07,0.318,0.026,0.57-0.135,0.754c-0.04,0.048-0.088,0.093-0.144,0.14s-0.117,0.09-0.188,0.132
			c0.101,0.028,0.188,0.063,0.262,0.104c0.076,0.042,0.141,0.087,0.195,0.133l0.788,0.84c0.039,0.041,0.05,0.083,0.035,0.129
			c-0.015,0.046-0.048,0.075-0.102,0.087l-1.063,0.236c-0.022,0.005-0.045,0.003-0.069-0.006c-0.023-0.009-0.044-0.022-0.059-0.04
			l-0.758-0.877l0.007,0.009c-0.015-0.012-0.029-0.024-0.045-0.034c-0.016-0.012-0.031-0.02-0.048-0.025
			c-0.026-0.011-0.114-0.001-0.265,0.033L273.18,178.385z M272.851,177.018l0.138,0.623l0.503-0.111
			c0.203-0.045,0.353-0.104,0.447-0.174c0.097-0.071,0.131-0.168,0.104-0.291c-0.022-0.103-0.08-0.169-0.172-0.199
			s-0.215-0.027-0.367,0.006L272.851,177.018z"/>
		<path d="M277.127,177.508l0.229,1.034c0.008,0.033,0.002,0.065-0.018,0.096c-0.021,0.03-0.048,0.049-0.084,0.058l-0.93,0.207
			c-0.033,0.007-0.065,0.001-0.096-0.018c-0.03-0.02-0.051-0.046-0.058-0.08l-0.674-3.03c-0.008-0.034-0.001-0.066,0.019-0.096
			s0.046-0.05,0.079-0.058l2.102-0.467c0.36-0.08,0.667-0.064,0.919,0.045c0.273,0.122,0.441,0.322,0.504,0.604
			c0.07,0.318,0.025,0.57-0.136,0.754c-0.039,0.048-0.087,0.093-0.142,0.14c-0.056,0.046-0.119,0.09-0.188,0.132
			c0.1,0.028,0.187,0.063,0.262,0.104c0.075,0.042,0.141,0.087,0.194,0.133l0.789,0.84c0.038,0.041,0.05,0.084,0.035,0.129
			c-0.015,0.046-0.049,0.075-0.103,0.087l-1.063,0.236c-0.022,0.005-0.045,0.003-0.069-0.006c-0.024-0.009-0.044-0.022-0.06-0.04
			l-0.758-0.877l0.007,0.009c-0.015-0.012-0.029-0.024-0.044-0.034c-0.016-0.012-0.032-0.02-0.048-0.025
			c-0.025-0.012-0.114-0.001-0.265,0.033L277.127,177.508z M276.797,176.141l0.139,0.623l0.502-0.111
			c0.203-0.045,0.354-0.104,0.449-0.174c0.095-0.071,0.129-0.167,0.102-0.291c-0.023-0.103-0.08-0.169-0.172-0.199
			c-0.091-0.03-0.213-0.028-0.366,0.006L276.797,176.141z"/>
		<path d="M280.272,178.026c-0.033,0.007-0.064,0.001-0.096-0.018c-0.03-0.019-0.049-0.046-0.057-0.079l-0.674-3.031
			c-0.007-0.033-0.001-0.065,0.019-0.096c0.02-0.031,0.046-0.05,0.079-0.058l2.44-0.542c0.033-0.007,0.065,0,0.096,0.019
			c0.031,0.019,0.051,0.046,0.058,0.079l0.136,0.611c0.009,0.036,0.003,0.069-0.018,0.1c-0.019,0.031-0.046,0.05-0.079,0.058
			l-1.406,0.313l0.074,0.334l1.201-0.267c0.033-0.007,0.066-0.001,0.097,0.019c0.03,0.02,0.05,0.046,0.058,0.08l0.134,0.603
			c0.008,0.036,0.001,0.069-0.018,0.101c-0.02,0.03-0.046,0.049-0.079,0.057l-1.2,0.272l0.077,0.351l1.52-0.337
			c0.037-0.008,0.069-0.001,0.099,0.018s0.048,0.048,0.056,0.084l0.136,0.611c0.008,0.033,0.003,0.065-0.016,0.095
			c-0.019,0.03-0.045,0.049-0.081,0.057L280.272,178.026z"/>
		<path d="M283.244,177.365c-0.03,0.007-0.059,0-0.085-0.02c-0.027-0.02-0.044-0.047-0.051-0.081l-0.674-3.031
			c-0.008-0.033-0.004-0.065,0.012-0.094c0.016-0.03,0.038-0.049,0.069-0.056l0.778-0.173c0.03-0.007,0.06,0.001,0.087,0.021
			c0.025,0.021,0.042,0.048,0.05,0.081l0.674,3.031c0.007,0.033,0.003,0.065-0.012,0.094c-0.016,0.03-0.039,0.048-0.069,0.055
			L283.244,177.365z"/>
		<path d="M285.243,175.705l0.229,1.035c0.008,0.033,0.002,0.065-0.019,0.096c-0.019,0.03-0.048,0.049-0.083,0.058l-0.93,0.207
			c-0.033,0.007-0.065,0.001-0.096-0.018c-0.031-0.019-0.05-0.046-0.058-0.079l-0.674-3.031c-0.007-0.033-0.001-0.065,0.02-0.096
			c0.019-0.03,0.045-0.05,0.079-0.058l2.101-0.467c0.359-0.08,0.667-0.064,0.92,0.046c0.272,0.122,0.439,0.322,0.502,0.604
			c0.071,0.318,0.027,0.57-0.134,0.754c-0.04,0.048-0.088,0.093-0.144,0.14c-0.055,0.046-0.118,0.09-0.188,0.132
			c0.1,0.028,0.187,0.063,0.262,0.104c0.076,0.042,0.141,0.086,0.195,0.133l0.788,0.84c0.037,0.041,0.05,0.084,0.035,0.129
			c-0.015,0.046-0.049,0.075-0.102,0.086l-1.063,0.236c-0.022,0.005-0.045,0.003-0.069-0.006c-0.023-0.009-0.044-0.022-0.059-0.04
			L286,175.632l0.007,0.009c-0.015-0.012-0.029-0.023-0.045-0.034c-0.017-0.011-0.032-0.02-0.048-0.025
			c-0.025-0.011-0.114,0-0.265,0.033L285.243,175.705z M284.912,174.338l0.139,0.624l0.503-0.112
			c0.204-0.045,0.353-0.104,0.448-0.174c0.097-0.071,0.13-0.168,0.103-0.291c-0.023-0.103-0.08-0.169-0.172-0.199
			c-0.09-0.03-0.214-0.027-0.366,0.006L284.912,174.338z"/>
		<path d="M291.336,175.181c-0.271,0.353-0.729,0.601-1.376,0.745c-0.647,0.144-1.168,0.114-1.562-0.092
			c-0.395-0.206-0.655-0.594-0.782-1.166c-0.128-0.572-0.056-1.035,0.214-1.389s0.729-0.604,1.376-0.748
			c0.647-0.144,1.167-0.111,1.563,0.095c0.394,0.207,0.654,0.596,0.781,1.168C291.678,174.366,291.606,174.828,291.336,175.181z
			 M290.064,173.555c-0.165-0.09-0.379-0.107-0.641-0.049c-0.263,0.058-0.449,0.164-0.559,0.315
			c-0.109,0.152-0.138,0.348-0.084,0.588c0.053,0.239,0.162,0.405,0.325,0.496c0.163,0.092,0.377,0.107,0.639,0.049
			c0.263-0.058,0.449-0.163,0.561-0.315c0.111-0.152,0.141-0.349,0.087-0.588C290.339,173.811,290.229,173.646,290.064,173.555z"/>
	</g>
</g>
<g>
	<g>
		<path fill="#FFFFFF" d="M8.035,74.534c-0.105,3.567,0.213,9.133,0.851,12.468c-0.012,4.952,0.2,24.557,0.833,36.693
			c0.926,17.736,0.05,33.955-0.067,34.631c-0.216,1.244,0.016,5.968,2.346,2.177c1.97-3.206,7.98-7.237,12.653-8.32
			c2.299-0.531,5.418,0.651,8.192,1.007c7.807,1.001,16.321,3.796,22.776,7.854c16.093,10.118,17.504,9.316,23.616,10.605
			c0,0,5.104-6.9,9.815-9.758c3.571-2.165,7.849-6.925,11.441-10.112c1.448-1.285,2.304,0.29,5.818-3.443
			c12.931-13.737,20.072-27.65,23.461-36.997c0,0,0,0.002-0.003,0.003c-0.168,0.306-11.01,19.919-15.026,24.361
			c-4.046,4.478-5.374,4.329-7.873,6.984c-2.499,2.656-3.312,4.618-6.283,6.318c-2.971,1.7-6.421,4.269-7.888,5.705
			c-1.465,1.436-3.382,3.165-8.188,0.21c-4.807-2.952-23.715-17.199-25.926-18.655c-2.212-1.456-4.145-1.844-2.211-8.999
			c1.935-7.155,7.902-26.246,10.085-31.997c0.323-0.851,0.74-1.849,1.225-2.947c2.78-6.323,7.703-15.885,8.802-18.792
			c1.29-3.412,9.206-21.133,10.408-28.249c0.62-3.674,2.35-6.7,4.165-8.869c-0.97,0.464-1.957,1.045-2.962,1.755
			c3.854-8.578,4.665-13.591,2.745-15.557c-0.18-0.187-0.386-0.345-0.615-0.477c-4.906-2.821-20.679-0.485-25.702,2.334
			c-1.659,1.444-3.692,5.471-5.687,9.925l0,0.002c-2.288,5.11-4.528,10.782-6.098,13.765c0.16-2.676,0.689-8.125,1.648-13.323
			c0.658-3.569,2.132-7.21,1.714-9.043c-0.088-0.379-0.31-0.744-0.622-1.073c-0.901-0.947-2.556-1.599-3.892-1.431
			c-0.124,0.015-0.247,0.031-0.371,0.048c-5.073,0.671-10.485,2.072-14.329,7.128c-1.321,1.736-2.577,3.699-3.775,5.851
			c-0.069,0.123-0.136,0.249-0.205,0.374c-1.373,2.511-2.734,6.478-3.991,10.157c0,0,0,0.002-0.002,0.007
			c-0.544,1.596-1.071,3.137-1.569,4.48c-0.785,2.112,0.599-8.575-1.845-10.671c-0.2-0.174-0.425-0.289-0.681-0.333
			c-5.331-0.931-9.907,4.07-12.776,10.005C9.444,55.714,8.338,64.366,8.035,74.534z"/>
	</g>
	<g>
		<path fill="#FFFFFF" d="M7.608,181.308c-1.075,3.717-1.55,8.064-2.208,11.569c-0.907,4.841-1.794,10.956-0.766,11.367
			c-0.006,0.063-0.02,0.131-0.039,0.202c-0.179,0.699-0.843,1.72-1.22,2.797c-0.26,0.743-0.383,1.511-0.118,2.221
			c1.159,3.087,0.515,5.436,0.515,5.436c2.021,3.102,18.249,8.372,33.029,10.819c6.617,1.095,12.687,1.105,17.567,1.123
			c2.029,0.007,3.851,0.016,5.423,0.105c2.265,0.127,3.854,0.11,4.497-0.083c2.312-0.699,5.3-6.346,8.18-13.287
			c1.177-2.843,1.461-6.05,2.548-9.077c0.873-2.422,3.16-5.97,4.245-8.484c0.143-0.324,0.261-0.632,0.357-0.918
			c2.22-6.715,2.25-7.248,2.582-10.297c0.207-1.897-1.444-3.365-6.934-4.001c-0.804-0.094-0.567,0.617-1.476,0.561
			c-13.544-0.846-36.218-4.636-50.082-7.561c-10.025-2.115-12.562-4.492-12.562-4.492s-1.925,2.396-2.738,4.4
			c-0.565,1.392,1.026,3.14,0.693,3.765c-0.06,0.111-0.119,0.226-0.177,0.341C8.4,178.869,7.97,180.053,7.608,181.308z"/>
	</g>
	<g>
		<path fill="#F7941E" d="M54.37,226.842c2.029,0.007,3.851,0.016,5.423,0.105c2.265,0.127,3.854,0.11,4.497-0.083
			c2.312-0.699,5.3-6.346,8.18-13.287c1.177-2.843,1.461-6.05,2.548-9.077c0.873-2.422,3.16-5.97,4.245-8.484l-10.019-0.296
			C69.245,195.72,56.199,217.096,54.37,226.842z"/>
	</g>
	<g>
		<path fill="#A7A9AC" d="M3.273,207.403l-0.126-0.081l0.05-0.142c0.189-0.541,0.45-1.07,0.682-1.536
			c0.23-0.467,0.448-0.908,0.534-1.245l0.057-0.223l0.208,0.1c2.031,0.966,4.256,1.912,6.611,2.81
			c6.328,2.415,18.668,5.888,24.666,7.153c0.416,0.087,0.801,0.166,1.147,0.23c5.52,1.036,7.376,1.148,9.708-3.368
			c1.49-2.891,3.408-6.236,5.1-9.187c1.042-1.818,1.942-3.388,2.587-4.579c0.219-0.404,0.438-0.781,0.651-1.144
			c0.733-1.26,1.313-2.253,1.001-2.957c-0.288-0.65-1.379-1.116-3.39-1.446c-0.379-0.062-0.888-0.144-1.512-0.243
			c-4.343-0.696-14.514-2.324-24.125-4.352c-9.787-2.064-16.383-3.989-19.603-5.718l-0.136-0.072l0.043-0.146
			c0.394-1.37,0.83-2.524,1.332-3.528l0.077-0.154l0.161,0.061c2.819,1.086,11.026,3.988,24.753,6.781
			c11.355,2.312,17.849,2.801,21.729,3.094c2.095,0.158,3.405,0.266,4.165,0.563c1.208,0.472,1.908,1.089,2.202,1.938
			c0.424,1.218-0.022,2.924-1.361,5.213c-0.365,0.623-0.818,1.396-1.334,2.276c-3.294,5.614-8.808,15.011-10.462,18.108
			c-1.995,3.737-3.043,4.021-10.2,2.771c-0.562-0.098-1.228-0.229-1.978-0.387C27.732,216.143,8.448,210.715,3.273,207.403z
			 M55.449,187.889c-3.889-0.293-10.397-0.783-21.775-3.1c-13.5-2.75-21.682-5.602-24.652-6.737
			C8.58,178.963,8.19,180,7.834,181.213c3.237,1.694,9.751,3.581,19.367,5.609c9.602,2.026,19.766,3.653,24.107,4.349
			c0.623,0.099,1.133,0.181,1.514,0.243c0.292,0.048,0.57,0.1,0.824,0.153c1.641,0.346,2.546,0.828,2.851,1.514
			c0.391,0.881-0.232,1.949-1.02,3.302c-0.21,0.361-0.429,0.735-0.645,1.133c-0.646,1.196-1.547,2.768-2.591,4.588
			c-1.69,2.947-3.605,6.288-5.093,9.171c-2.447,4.741-4.509,4.618-10.115,3.567c-0.347-0.065-0.737-0.144-1.155-0.231l0,0
			c-6.011-1.268-18.379-4.749-24.723-7.17c-2.288-0.872-4.454-1.79-6.44-2.728c-0.112,0.322-0.292,0.688-0.495,1.099
			c-0.205,0.416-0.436,0.881-0.612,1.352c5.322,3.296,24.299,8.628,32.98,10.46c0.746,0.157,1.408,0.286,1.966,0.384
			c7.229,1.263,7.968,0.853,9.8-2.577c1.658-3.104,7.173-12.505,10.469-18.123c0.516-0.879,0.971-1.654,1.335-2.275
			c1.28-2.188,1.715-3.789,1.331-4.896c-0.256-0.738-0.886-1.281-1.983-1.71c-0.169-0.067-0.371-0.124-0.613-0.175
			C58.13,188.091,57.005,188.006,55.449,187.889z"/>
	</g>
	<g>
		<path fill="#A7A9AC" d="M31.454,222.211c2.229,0.471,4.281,0.84,6.117,1.131c8.852,1.402,14.695,1.316,14.753,1.315l0.15-0.003
			l0.031-0.147c0.853-4.04,13.12-25.622,14.939-28.584c1.912-3.113,2.486-3.107,4.385-3.086l5.159,0.055
			c2.288,0.023,2.751-2.087,3.124-3.784c0.079-0.366,0.156-0.71,0.245-1.029l0.067-0.237c0.203-0.708,0.349-1.22,0.066-1.616
			c-0.373-0.522-1.366-0.723-4.431-0.892l-0.084-0.005c-4.947-0.274-13.229-0.732-41.487-5.666
			c-18.669-3.26-23.918-5.953-25.386-7.267l-0.253,0.282c1.83,1.64,7.751,4.248,25.574,7.359c28.28,4.938,36.575,5.397,41.531,5.671
			l0.083,0.004c2.445,0.136,3.829,0.292,4.143,0.732c0.177,0.248,0.058,0.664-0.121,1.293l-0.068,0.239
			c-0.092,0.33-0.169,0.679-0.25,1.049c-0.379,1.725-0.769,3.508-2.749,3.487l-5.16-0.055c-1.955-0.021-2.688-0.029-4.712,3.267
			c-2.032,3.308-13.841,24.099-14.953,28.555c-0.959,0.004-6.505-0.038-14.549-1.313c-8.139-1.29-20.576-4.144-33.596-10.406
			l-0.165,0.342C13.988,217.772,23.766,220.588,31.454,222.211z"/>
	</g>
	<g>
		<path fill="#414042" d="M59.793,226.947c0,0-1.065,6.289-4.281,6.85s-14.313,4.415-40.999-5.923
			c-9.495-3.737-11.216-6.735-11.216-6.735s0.761-4.196,1.162-5.51C25.673,222.547,39.2,226.073,59.793,226.947z"/>
		<path fill="#262262" d="M14.479,227.963c-9.417-3.708-11.193-6.653-11.264-6.778l-0.018-0.029l0.006-0.033
			c0.008-0.043,0.767-4.217,1.165-5.521l0.028-0.093l0.092,0.03c10.637,3.469,19.568,6.169,28.576,8.069
			c8.541,1.802,17.034,2.832,26.732,3.244l0.107,0.005l-0.019,0.105c-0.042,0.26-1.112,6.361-4.357,6.928
			c-0.266,0.047-0.59,0.117-0.968,0.198c-2.857,0.615-9.548,2.059-21.81-0.528C27.18,232.385,21.033,230.501,14.479,227.963z
			 M33.026,223.793c-8.989-1.896-17.901-4.588-28.503-8.044c-0.38,1.317-1.052,4.966-1.126,5.37
			c0.206,0.313,2.279,3.174,11.151,6.666c6.543,2.536,12.681,4.415,18.242,5.589c12.222,2.578,18.886,1.143,21.73,0.529
			c0.379-0.082,0.705-0.152,0.976-0.199c2.886-0.503,4.024-5.843,4.184-6.667C50.017,226.622,41.545,225.591,33.026,223.793z"/>
	</g>
	<g>
		<path fill="#414042" d="M78.857,170.988c0,0,0.188,0.945-0.47,2.228c-0.658,1.283-0.492,1.11-1.36,2.776
			c-0.869,1.666-2.552,5.965-2.877,6.284c-0.326,0.319-52.215-6.186-62.507-10.708l-0.494-2.26c0,0,0.693-6.511-0.3-7.277
			c0,0,2.271-7.885,9.711-10.064c7.44-2.18,28.166,1.914,36.044,6.236C64.484,162.526,73.333,170.21,78.857,170.988z"/>
		<path fill="#262262" d="M11.604,171.655l-0.045-0.019l-0.503-2.308l-0.002-0.03c0.191-1.796,0.517-6.59-0.263-7.192l-0.052-0.039
			l0.018-0.062c0.023-0.08,2.371-7.959,9.776-10.129c4.593-1.344,13.678-0.252,20.649,1.219c6.415,1.353,12.197,3.232,15.467,5.027
			c2.897,1.589,5.934,3.637,8.868,5.619c4.831,3.259,9.393,6.337,12.817,7.06c0.183,0.039,0.363,0.07,0.535,0.095l0.066,0.009
			l0.014,0.066c0.008,0.04,0.187,0.992-0.479,2.29c-0.295,0.576-0.422,0.852-0.556,1.145c-0.161,0.352-0.327,0.713-0.806,1.632
			c-0.409,0.784-1.013,2.185-1.545,3.42c-0.721,1.677-1.173,2.715-1.35,2.887c-0.221,0.217-11.354-1.2-18.965-2.261
			c-7.665-1.07-22.103-3.197-32.692-5.431C17.279,173.538,13.593,172.529,11.604,171.655z M75.392,179.382
			c0.534-1.24,1.139-2.644,1.551-3.434c0.476-0.914,0.641-1.274,0.802-1.624c0.134-0.294,0.261-0.573,0.56-1.152
			c0.537-1.047,0.496-1.871,0.47-2.101c-0.155-0.024-0.314-0.052-0.477-0.087c-3.461-0.73-8.039-3.82-12.884-7.088
			c-2.932-1.979-5.964-4.025-8.854-5.61c-3.255-1.787-9.018-3.658-15.415-5.008c-8.867-1.871-16.743-2.338-20.557-1.221
			c-6.973,2.042-9.404,9.228-9.63,9.942c0.937,0.943,0.333,6.876,0.288,7.303l0.48,2.197c1.987,0.865,5.646,1.862,10.873,2.965
			c17.979,3.793,50.307,7.864,51.5,7.728C74.276,181.974,74.842,180.657,75.392,179.382z"/>
	</g>
	<g>
		<path fill="#414042" d="M127.224,113c0,0-2.975,2.151-8.473,1.25c-5.498-0.901-13.772,0.327-16.175-2.378
			c0,0-1.102,0.931-4.156,1.321c-3.056,0.389-7.965,2.618-6.528-3.171c0,0-4.353,4.495-3.638,9.688
			c0.714,5.192,10.188,17.886,19.474,16.154C117.013,134.131,125.812,117.55,127.224,113z"/>
		<path fill="#262262" d="M93.228,128.86c-2.709-3.126-4.746-6.798-5.068-9.138c-0.712-5.178,3.62-9.721,3.665-9.767l0.245-0.253
			l-0.085,0.342c-0.35,1.414-0.336,2.438,0.043,3.044c0.223,0.357,0.573,0.581,1.069,0.686c0.951,0.2,2.267-0.078,3.541-0.348
			c0.628-0.133,1.222-0.258,1.771-0.329c2.982-0.38,4.097-1.29,4.106-1.299l0.071-0.059l0.062,0.069
			c0.578,0.651,1.546,1.112,2.961,1.411c1.875,0.396,4.229,0.452,6.719,0.512c2.216,0.053,4.507,0.108,6.439,0.425
			c5.39,0.883,8.372-1.213,8.402-1.234l0.229-0.167l-0.083,0.271c-0.688,2.213-3.254,7.559-6.811,12.515
			c-3.034,4.23-7.711,9.471-12.759,10.413c-1.28,0.239-2.623,0.214-3.99-0.075C99.025,134.884,95.129,131.054,93.228,128.86z
			 M118.735,114.344c-1.919-0.314-4.204-0.369-6.412-0.422c-2.5-0.06-4.862-0.117-6.754-0.516c-1.409-0.297-2.393-0.758-3.004-1.405
			c-0.292,0.21-1.479,0.948-4.134,1.287c-0.541,0.068-1.13,0.193-1.754,0.326c-1.292,0.273-2.629,0.557-3.62,0.348
			c-0.548-0.116-0.938-0.368-1.19-0.771c-0.379-0.605-0.429-1.534-0.151-2.83c-0.903,1.046-3.968,4.968-3.367,9.337
			c0.316,2.306,2.334,5.938,5.021,9.038c1.886,2.177,5.748,5.974,10.423,6.96c1.342,0.283,2.661,0.309,3.916,0.074
			c4.987-0.931,9.627-6.135,12.642-10.337c3.417-4.762,5.915-9.88,6.702-12.213C126.253,113.688,123.366,115.103,118.735,114.344z"
			/>
	</g>
	<g>
		<path fill="#FFFFFF" d="M102.575,111.872c0,0,0.365,0.145,1.017,0.374c4.027,1.406,18.997,5.981,26.179-0.905
			c0,0,3.949-9.832,1.748-12.881c-2.201-3.051-5.92-5.645-7.287-5.288c-1.37,0.359-9.586,8.061-12.316,10.587
			C109.184,106.285,102.575,111.872,102.575,111.872z"/>
	</g>
	<g>
		<path fill="#A7A9AC" d="M67.678,92.326l0.003-0.001c6.328-4.606,29.156-57.422,29.156-57.422c-1.842,0.084-3.773,0.549-5.78,1.511
			l0,0.001c-0.97,0.464-1.957,1.045-2.962,1.755c3.854-8.578,4.665-13.591,2.745-15.557c-1.605,1.366-7.871,14.593-12.352,25.283
			C74.006,58.583,67.678,92.326,67.678,92.326z"/>
	</g>
	<g>
		<path fill="#F7941E" d="M58.583,136.267c2.211,1.456,21.12,15.703,25.926,18.655c4.806,2.955,6.723,1.225,8.188-0.21
			c1.467-1.436,4.917-4.005,7.888-5.705c2.972-1.701,3.785-3.662,6.283-6.318c2.5-2.655,3.827-2.506,7.873-6.984
			c4.017-4.442,14.858-24.056,15.026-24.361l-3.818,2.487c-3.23,3.829-3.216,7.173-7.662,11.498
			c-4.956,4.824-10.208,9.735-14.083,8.605c-4.527-1.32-11.932-7.272-15.07-13.313c-2.528-4.867,18.449-40.139,20.181-45.591
			c1.806-5.683,11.491-20.458,5.954-28.219c-3.038-4.257-9.728-12.318-18.432-11.908c-1.842,0.084-3.773,0.549-5.78,1.511l0,0.001
			c-1.815,2.169-3.544,5.195-4.165,8.869c-1.203,7.115-9.118,24.836-10.408,28.249c-1.099,2.907-6.022,12.47-8.802,18.792
			c-0.484,1.098-0.901,2.096-1.225,2.947c-2.183,5.751-8.15,24.842-10.085,31.997C54.438,134.423,56.371,134.811,58.583,136.267z"/>
	</g>
	<g>
		<path fill="#58595B" d="M71.302,52.079c0,0,4.984,0.276,2.567,7.134c-2.417,6.859-1.558,10.143-5.74,7.903
			c-4.181-2.239-13.004-5.458-14.195-5.322c-1.192,0.136-2.521-0.919-1.719-2.884c0.802-1.963,1.158-11.002,5.36-10.697
			C61.777,48.518,67.229,50.25,71.302,52.079z"/>
	</g>
	<g>
		<path fill="#FFFFFF" d="M55.648,54.521c0.255-0.754,1.404-0.91,2.462-0.572l10.05,3.381c0.794,0.269,1.636,0.988,1.369,1.783
			c-0.269,0.794-1.622,0.688-2.417,0.42l-9.744-2.986C56.069,56.272,55.393,55.274,55.648,54.521z"/>
	</g>
	<g>
		<path fill="#58595B" d="M71.917,51.006c0,0,3.802,2.198,4.742-0.416c0.938-2.614,2.891-7.729,3.146-8.935
			c0.255-1.207,0.661-2.672-2.656-3.954c-3.317-1.282-10.24-2.936-12.81-2.703c-2.57,0.233-3.597,0.501-4.57,2.817
			c-0.973,2.315-3.179,6.795-3.263,7.65c-0.083,0.855-0.021,1.935,1.861,1.75C60.248,47.031,68.798,49.244,71.917,51.006z"/>
	</g>
	<g>
		<path fill="#FFFFFF" d="M61.229,40.25c0.276-0.815,3.688-0.595,4.947-0.418l6.168,1.547c1.557,0.61,2.579,1.44,2.288,2.298
			c-0.29,0.86-1.5,0.832-2.198,0.596l-9.989-2.244C61.292,41.818,60.954,41.065,61.229,40.25z"/>
	</g>
	<g>
		<path fill="#58595B" d="M83.169,20.86c0,0,5.642,1.075,4.679,4.266c-0.964,3.19-3.197,4.388-4.166,6.548
			c-0.969,2.161-1.109,6.3-4.956,5.101c-3.846-1.199-9.532-2.736-12.841-2.684c-3.308,0.053-4.788,1.098-4.015-1.648
			s4.197-8.287,7.245-9.699C69.117,22.744,77.689,20.461,83.169,20.86z"/>
	</g>
	<g>
		<path fill="#58595B" d="M52.834,75.281c-0.29,1.371-6.993,18.151-7.932,26.104c-0.272,2.305,1.518,4.295,2.632,4.531
			c1.113,0.235,3.254-0.199,4.417-2.559c3.731-7.562,7.628-23.772,8.184-25.033c1.875-4.258-0.673-5.571-2.749-6.009
			C55.311,71.877,53.207,73.513,52.834,75.281z"/>
	</g>
	<g>
		<path fill="#58595B" d="M29.632,72.665c-0.274,1.301-3.448,18.757-3.413,27.203c0.402,2.689,0.833,5.702,2.504,6.055
			c0.77,0.163,3.002-1.79,3.857-5.876c1.797-8.589,2.685-25.135,2.899-26.148c0.378-1.794-0.192-3.434-1.96-3.808
			C31.751,69.718,30.011,70.87,29.632,72.665z"/>
	</g>
	<g>
		<path fill="#58595B" d="M87.498,162.961l-1.608-0.339c-1.228,0.768-0.596,0.998-2.031,0.211
			c-1.435-0.788-17.851-12.59-19.497-13.518c-1.646-0.929-9.667-6.113-11.981-8.928c-2.315-2.816-5.753-6.74-3.81-14.571
			c1.942-7.832-5.222-14.772-9.849-15.361c-4.626-0.588-8.99,0.333-12.071,6.664c-3.081,6.331,0.152,10.31-1.608,13.138
			c-1.76,2.829-4.591,6.594-7.954,9.665c-3.362,3.072-5.764,7.104-5.458,7.954c0.306,0.849,0.974,0.893,0.974,0.893
			s-1.046,2.204-0.851,3.117s1.147,1.211,0.888,1.642c-0.258,0.431-1.227,2.262-1.007,2.599c0.22,0.338,0.331,1.428,1.152,0.631
			c1.342-1.301,2.602-3.717,5.45-5.734c3.847-2.723,5.938-1.947,5.938-1.947c4.329,0.622,26.819,4.107,32.122,8.134
			c5.302,4.027,17.935,12.413,20.505,12.18c2.57-0.234,1.881-0.185,2.57-0.234c0.689-0.048,0.256-1.012,0.256-1.012l0.721,0.055
			c0,0,1.988-1.843,2.784-1.934c0.795-0.091,0.795-0.091,0.795-0.091S86.742,163.513,87.498,162.961z"/>
	</g>
	<g>
		<path fill="#FFFFFF" d="M13.395,147.327c0,0,3.178-4.036,5.611-5.455c2.432-1.419,7.967-0.542,9.472-0.322
			c1.505,0.221,25.428,2.637,34.433,9.585c9.006,6.948,18.541,13.227,19.186,13.847c0.644,0.621,0.301,1.324-0.846,0.792
			c-1.149-0.533-12.704-8.72-14.48-9.953s-7.702-6.167-15.269-8.249c-7.566-2.082-18.862-3.689-22.39-4.433
			c-3.527-0.745-8.525-1.411-13.145,2.56C11.35,149.668,12.771,149.369,13.395,147.327z"/>
		<path fill="#58595B" d="M81.211,165.858c-0.937-0.434-8.483-5.739-12.538-8.588c-0.916-0.645-1.616-1.135-1.956-1.372
			c-0.238-0.165-0.542-0.391-0.927-0.677c-2.522-1.869-7.771-5.759-14.313-7.559c-1.649-0.454-3.626-0.925-5.877-1.4
			c-4.043-0.853-8.243-1.572-11.616-2.151c-2.147-0.368-3.842-0.66-4.891-0.881c-4.014-0.847-8.705-1.207-13.063,2.54
			c-2.095,1.801-2.968,2.741-3.247,3.063c-0.029,0.034-0.057,0.065-0.11,0.056l-0.051-0.01l-0.02-0.047
			c-0.02-0.049,0.003-0.082,0.023-0.112c0.282-0.408,0.523-0.912,0.679-1.42l0.016-0.031c0.032-0.041,3.217-4.067,5.637-5.479
			c2.384-1.39,7.648-0.612,9.378-0.356l0.157,0.022c0.112,0.017,0.351,0.046,0.7,0.088c1.951,0.236,7.892,0.955,14.353,2.317
			c9.218,1.945,15.752,4.367,19.424,7.199c6.002,4.631,12.212,8.945,15.923,11.522c1.901,1.321,3.049,2.118,3.269,2.331
			c0.312,0.299,0.429,0.649,0.3,0.892c-0.116,0.219-0.397,0.3-0.768,0.222C81.546,165.996,81.384,165.939,81.211,165.858z
			 M29.169,141.732c-0.35-0.043-0.591-0.072-0.704-0.087l-0.157-0.024c-1.713-0.253-6.928-1.024-9.254,0.333
			c-2.318,1.353-5.367,5.158-5.574,5.419c-0.079,0.255-0.178,0.51-0.294,0.752c0.506-0.513,1.356-1.326,2.721-2.5
			c4.42-3.799,9.167-3.437,13.226-2.58c1.044,0.22,2.738,0.512,4.883,0.879c3.376,0.579,7.577,1.299,11.624,2.153
			c2.255,0.476,4.236,0.948,5.889,1.402c6.575,1.809,11.843,5.712,14.374,7.59c0.385,0.284,0.689,0.51,0.924,0.672
			c0.339,0.237,1.04,0.729,1.956,1.373c3.762,2.644,11.588,8.146,12.509,8.573c0.489,0.227,0.895,0.232,1.003,0.029
			c0.072-0.136,0.019-0.395-0.264-0.666c-0.209-0.202-1.417-1.041-3.246-2.312c-3.712-2.579-9.924-6.895-15.931-11.529
			c-3.647-2.813-10.156-5.224-19.346-7.163C37.053,142.686,31.119,141.968,29.169,141.732z"/>
	</g>
	<g>
		<path fill="#FFFFFF" d="M76.339,166.288c0,0,3.86,2.172,1.148,1.697c-2.71-0.475-14.672-9.494-18.277-11.709
			s-6.867-3.97-16.851-6.173c-9.985-2.204-19.432-4.294-22.878-2.209c-3.445,2.085-4.55,2.627-5.694,4.131
			c-1.144,1.503-0.504-1.402,0.9-2.543c1.403-1.141,4.879-4.285,9.134-3.776c4.255,0.51,29.306,4.229,34.968,8.43
			C64.837,158.625,76.339,166.288,76.339,166.288z"/>
		<path fill="#58595B" d="M64.534,160.017c-2.272-1.589-4.236-2.96-5.375-3.661c-3.641-2.237-6.98-3.989-16.821-6.161l-0.054-0.012
			c-1.765-0.39-3.59-0.792-5.327-1.159c-8.529-1.799-14.756-2.666-17.428-1.05c-0.441,0.269-0.844,0.51-1.214,0.732
			c-2.523,1.513-3.467,2.079-4.453,3.376c-0.264,0.346-0.446,0.486-0.593,0.456c-0.044-0.009-0.123-0.044-0.152-0.172
			c-0.116-0.477,0.51-2.146,1.509-2.958c0.089-0.073,0.188-0.154,0.294-0.241c1.587-1.31,4.888-4.037,8.913-3.555
			c2.592,0.311,10.868,1.539,18.573,3.164c8.641,1.823,14.171,3.601,16.439,5.284c5.978,4.436,17.432,12.073,17.54,12.146
			c0.696,0.392,2.301,1.348,2.151,1.766c-0.069,0.193-0.387,0.225-1.064,0.106c-0.021-0.002-0.05,0-0.065-0.012
			C75.462,167.656,69.403,163.42,64.534,160.017z M23.809,145.801c-3.942-0.473-7.202,2.219-8.769,3.512
			c-0.106,0.088-0.205,0.17-0.294,0.243c-0.897,0.729-1.43,2.126-1.453,2.64c-0.005,0.121,0.018,0.154,0.017,0.157
			c0.009,0,0.117-0.01,0.401-0.386c1.009-1.325,1.961-1.896,4.507-3.424c0.37-0.221,0.772-0.463,1.214-0.731
			c2.725-1.648,8.993-0.782,17.564,1.027c1.737,0.367,3.563,0.77,5.329,1.159l0.054,0.013c9.87,2.177,13.222,3.937,16.879,6.184
			c1.145,0.703,3.109,2.076,5.384,3.667c4.905,3.43,11.03,7.712,12.861,8.03c0.787,0.138,0.853,0.018,0.853,0.017
			c0.059-0.166-0.905-0.885-2.072-1.542c-0.114-0.077-11.571-7.716-17.554-12.155c-2.246-1.666-7.751-3.432-16.365-5.249
			C34.667,147.338,26.399,146.11,23.809,145.801z"/>
	</g>
	<g>
		
			<ellipse transform="matrix(-0.9785 -0.2064 0.2064 -0.9785 47.2679 248.6066)" fill="#C2B59B" cx="36.604" cy="121.837" rx="8.823" ry="8.633"/>
		<path fill="#58595B" d="M27.878,119.997c0.993-4.708,5.716-7.714,10.527-6.699s7.917,5.672,6.924,10.38
			c-0.994,4.709-5.717,7.714-10.528,6.699S26.885,124.706,27.878,119.997z M28.064,120.036c-0.972,4.607,2.068,9.163,6.777,10.156
			c4.709,0.994,9.331-1.946,10.302-6.553c0.972-4.607-2.068-9.163-6.777-10.156C33.658,112.49,29.037,115.429,28.064,120.036z"/>
	</g>
	<g>
		<path fill="#A7A9AC" d="M44.212,76.158l14.623-41.761c-2.288,5.11-4.528,10.782-6.098,13.765c0.16-2.676,0.689-8.125,1.648-13.323
			c0.658-3.569,2.132-7.21,1.714-9.043c-0.088-0.379-0.31-0.744-0.622-1.073c-1.717,1.322-3.957,4.499-6.613,11.457
			c-1.1,2.882-1.962,5.935-2.633,9.018C42.939,60.314,44.212,76.158,44.212,76.158z"/>
	</g>
	<g>
		<path fill="#58595B" d="M41.897,48.072c0,0,2.418-0.133,2.971,0.627c0.551,0.759-1.208,7.954-1.284,9.037
			c-0.076,1.082,0.25,1.992-2.06,2.215c-2.309,0.224-12.096,3.719-13.418,4.474c-1.322,0.755-1.185-1.737-0.597-4.521
			c0.587-2.785,0.129-6.436,4.059-8.516C35.497,49.308,41.526,48.081,41.897,48.072z"/>
	</g>
	<g>
		<path fill="#FFFFFF" d="M36.971,54.272c0,0,2.345-1.006,2.629-0.52c0.285,0.488-0.11,1.438-2.448,2.109
			c-2.339,0.669-6.138,2.131-5.981,1.388C31.328,56.508,33.377,55.065,36.971,54.272z"/>
	</g>
	<g>
		<path fill="#58595B" d="M43.842,46.673c0,0,1.793-0.074,2.357-3.058c0.565-2.984,1.537-5.364,1.72-6.424
			c0.182-1.061-0.198-2.628-3.081-2.137c-2.882,0.491-9.415,2.344-11.132,4.05c-1.717,1.707-2.314,3.003-2.627,4.488
			c-0.313,1.485-1.771,6.865-1.58,7.487c0.192,0.622-0.065,0.309,3.958-1.298S41.792,46.499,43.842,46.673z"/>
	</g>
	<g>
		<path fill="#FFFFFF" d="M39.715,40.955c0,0,1.856-0.837,1.86,0.069c0.002,0.906-4.197,1.818-5.426,2.437
			c-1.23,0.62-4.321,2.1-2.118,0.238C36.233,41.835,39.715,40.955,39.715,40.955z"/>
	</g>
	<g>
		<path fill="#58595B" d="M33.111,36.319c-0.185,1.198-0.238,2.182-0.257,2.533c-0.043,0.821,1.67-0.867,3.279-1.755
			c1.612-0.888,7.052-2.778,9.36-3.003c2.31-0.222,3.109-0.635,3.408-1.542c0.3-0.906,1.272-3.481,1.272-3.481
			c0.347-1.302,1.428-2.408,2.204-3.213c0.777-0.808,0.214-1.442-0.211-2.017c-0.123-0.167-0.478-0.337-0.951-0.499
			c-5.073,0.671-10.485,2.072-14.329,7.128C35.566,32.204,34.31,34.167,33.111,36.319z"/>
	</g>
	<g>
		<path fill="#A7A9AC" d="M20.708,78.959c0.704,1.569,2.17-3.55,2.557-7.221c0.382-3.631,5.537-24.43,5.648-24.882
			c-0.544,1.596-1.071,3.137-1.569,4.48c-0.785,2.112,0.599-8.575-1.845-10.671c-0.657,2.666-2.024,8.13-3.149,12.126
			C20.806,58.274,20.006,77.387,20.708,78.959z"/>
	</g>
	<g>
		<path fill="#58595B" d="M12.71,91.749c0,0-3.897,2.539-1.237-0.261C14.132,88.688,16.475,88.182,12.71,91.749z"/>
	</g>
	<g>
		<path fill="#58595B" d="M12.979,101.501c0,0,1.882-1.671,1.869-0.64c-0.012,1.032-1.758,1.956-2.26,2.497
			C12.087,103.899,9.187,106.001,12.979,101.501z"/>
	</g>
	<g>
		<path fill="#58595B" d="M12.981,113.136c0,0,1.61-2.116,1.57-0.703s-2.871,3.531-2.871,3.531S11.32,115.5,12.981,113.136z"/>
	</g>
	<g>
		<path fill="#58595B" d="M13.849,124.955c0,0,1.363-2.169,1.728-1.446c0.364,0.724-0.144,1.909-1.385,3.198
			c-1.242,1.289-2.79,2.962-1.3-0.274C13.336,125.466,13.849,124.955,13.849,124.955z"/>
	</g>
	<g>
		<path fill="#A7A9AC" d="M102.575,111.872c0,0,0.365,0.145,1.017,0.374c5.71-3.184,13.637-11.153,15.674-13.864
			c2.831-3.766,4.966-5.21,4.966-5.21c-1.37,0.359-9.586,8.061-12.316,10.587C109.184,106.285,102.575,111.872,102.575,111.872z"/>
	</g>
	<g>
		<path fill="#58595B" d="M77.036,97.618c0.338-0.399,0.987-0.406,1.447-0.015l0,0l6.252,5.311c0.46,0.391,0.559,1.032,0.22,1.431
			c-0.338,0.399-0.987,0.406-1.447,0.015l-6.253-5.311l0,0C76.794,98.658,76.696,98.018,77.036,97.618z"/>
	</g>
	<g>
		<path fill="#58595B" d="M72.737,109.594c0.279-0.444,0.919-0.544,1.431-0.223l0,0l6.952,4.354
			c0.512,0.321,0.701,0.941,0.423,1.385c-0.278,0.444-0.919,0.544-1.43,0.224l-6.952-4.355l0,0
			C72.648,110.658,72.459,110.039,72.737,109.594z"/>
	</g>
	<g>
		<path fill="#58595B" d="M68.067,121.069c0.278-0.444,0.943-0.529,1.484-0.19l0,0l7.348,4.603c0.54,0.339,0.753,0.974,0.476,1.418
			c-0.279,0.444-0.943,0.529-1.483,0.191l-7.349-4.604l0,0C68.002,122.148,67.789,121.513,68.067,121.069z"/>
	</g>
	<g>
		<path fill="#58595B" d="M91.667,136.733c0.304-0.427,0.904-0.521,1.344-0.21l0,0l5.962,4.228c0.439,0.312,0.549,0.911,0.247,1.338
			c-0.304,0.427-0.905,0.521-1.344,0.21l-5.962-4.229l0,0C91.475,137.759,91.365,137.16,91.667,136.733z"/>
	</g>
	<g>
		<path fill="#58595B" d="M85.132,144.969c0.303-0.428,0.855-0.557,1.233-0.29l0,0l5.13,3.637c0.376,0.268,0.437,0.832,0.134,1.26
			c-0.302,0.426-0.855,0.556-1.233,0.288l-5.128-3.637l0,0C84.89,145.96,84.829,145.396,85.132,144.969z"/>
	</g>
	<g>
		<path fill="#58595B" d="M64.447,131.488c0.279-0.444,0.942-0.529,1.483-0.19l0,0l7.349,4.603c0.542,0.339,0.755,0.974,0.477,1.418
			c-0.278,0.443-0.943,0.529-1.483,0.19l-7.349-4.604l0,0C64.382,132.566,64.169,131.932,64.447,131.488z"/>
	</g>
	<g>
		<path fill="#6D6E71" d="M23.397,40.222c0,0-0.341,1.56-0.938,4.288c-0.293,1.366-0.67,3.018-1.066,4.925
			c-0.383,1.908-0.678,4.092-0.931,6.472c-0.254,2.381-0.479,4.967-0.674,7.704c-0.196,2.738-0.371,5.626-0.48,8.62
			c-0.057,1.496-0.1,3.018-0.113,4.561c0.001,0.387,0.003,0.774,0.005,1.163c0.013,0.388,0.026,0.777,0.039,1.167
			c0.014,0.778,0.043,1.561,0.044,2.345c-0.01,3.132-0.065,6.325-0.129,9.516c-0.124,6.383-0.247,12.766-0.362,18.749
			c-0.008,0.749-0.015,1.491-0.022,2.227c-0.002,0.368-0.011,0.732-0.007,1.099c0.002,0.363,0.014,0.728,0.027,1.09
			c0.067,1.445,0.21,2.85,0.348,4.214c0.276,2.725,0.53,5.314,0.311,7.688c-0.108,1.184-0.34,2.31-0.735,3.316
			c-0.088,0.255-0.21,0.493-0.317,0.733c-0.127,0.23-0.238,0.465-0.381,0.677c-0.26,0.44-0.581,0.827-0.896,1.186
			c-1.334,1.417-2.52,2.626-3.566,3.553c-0.508,0.478-0.994,0.869-1.404,1.224c-0.422,0.339-0.78,0.63-1.082,0.853
			c-0.299,0.224-0.532,0.392-0.692,0.5c-0.158,0.111-0.244,0.162-0.244,0.162s0.086-0.05,0.247-0.16
			c0.163-0.104,0.397-0.27,0.7-0.489c0.305-0.218,0.666-0.503,1.094-0.838c0.416-0.349,0.907-0.734,1.424-1.205
			c1.06-0.911,2.269-2.107,3.622-3.504c0.33-0.364,0.659-0.751,0.932-1.196c0.149-0.215,0.265-0.453,0.399-0.687
			c0.111-0.243,0.24-0.484,0.335-0.743c0.212-0.509,0.369-1.053,0.498-1.616c0.132-0.563,0.217-1.147,0.279-1.746
			c0.242-2.402,0.005-5.009-0.249-7.737c-0.126-1.366-0.256-2.767-0.312-4.2c-0.028-0.713-0.018-1.442-0.008-2.175
			c0.009-0.734,0.019-1.476,0.029-2.223c0.131-5.983,0.271-12.366,0.411-18.748c0.057-3.191,0.104-6.382,0.105-9.534
			c-0.005-0.786-0.035-1.567-0.051-2.346c-0.014-0.388-0.027-0.774-0.042-1.16c-0.002-0.386-0.006-0.771-0.008-1.155
			c0.009-1.537,0.047-3.057,0.101-4.55c0.218-5.977,0.572-11.552,1.037-16.314c0.063-0.595,0.125-1.177,0.185-1.746
			c0.069-0.568,0.135-1.124,0.201-1.664c0.141-1.081,0.285-2.102,0.469-3.058c0.367-1.908,0.72-3.568,0.994-4.938
			C23.078,41.786,23.397,40.222,23.397,40.222z"/>
	</g>
	<g>
		<path fill="#A7A9AC" d="M13.594,135.528c0,0-0.085-0.038-0.229-0.133c-0.143-0.098-0.336-0.261-0.555-0.495
			c-0.216-0.237-0.442-0.556-0.657-0.946c-0.093-0.202-0.209-0.409-0.289-0.647c-0.042-0.117-0.095-0.233-0.134-0.358
			c-0.038-0.126-0.076-0.254-0.116-0.385c-0.043-0.13-0.071-0.268-0.101-0.407c-0.031-0.139-0.063-0.281-0.093-0.425
			c-0.039-0.293-0.1-0.593-0.127-0.906c-0.064-0.626-0.082-1.288-0.08-1.977c0.005-0.346,0.004-0.7,0.021-1.052
			c0.007-0.177,0.012-0.355,0.019-0.534c0.011-0.178,0.022-0.357,0.034-0.538c0.039-0.721,0.145-1.445,0.29-2.157l0.134-0.526
			c0.024-0.088,0.041-0.177,0.07-0.263l0.089-0.256c0.061-0.17,0.117-0.341,0.18-0.509c0.075-0.164,0.15-0.326,0.224-0.488
			l0.11-0.243l0.133-0.23c0.087-0.154,0.174-0.307,0.261-0.458c0.189-0.294,0.396-0.574,0.594-0.851
			c0.222-0.26,0.435-0.52,0.652-0.767c0.231-0.236,0.458-0.466,0.679-0.69c0.47-0.418,0.907-0.827,1.349-1.158
			c0.217-0.17,0.422-0.337,0.623-0.489c0.205-0.147,0.398-0.287,0.582-0.418c0.182-0.131,0.353-0.254,0.511-0.368
			c0.163-0.107,0.313-0.205,0.448-0.293c0.538-0.359,0.846-0.564,0.846-0.564s-0.322,0.182-0.885,0.501
			c-0.141,0.081-0.296,0.171-0.466,0.268c-0.165,0.105-0.343,0.218-0.534,0.339c-0.19,0.122-0.394,0.25-0.606,0.387
			c-0.211,0.141-0.423,0.303-0.65,0.465c-0.46,0.315-0.919,0.71-1.41,1.123c-0.231,0.222-0.469,0.451-0.713,0.684
			c-0.231,0.246-0.453,0.512-0.687,0.774c-0.209,0.283-0.427,0.567-0.63,0.869c-0.093,0.156-0.187,0.314-0.281,0.472l-0.139,0.239
			l-0.118,0.251c-0.078,0.168-0.157,0.337-0.236,0.507c-0.067,0.174-0.126,0.353-0.19,0.529l-0.094,0.266
			c-0.031,0.089-0.049,0.181-0.074,0.271l-0.143,0.547c-0.146,0.737-0.25,1.481-0.286,2.214c-0.01,0.183-0.024,0.365-0.03,0.546
			c-0.003,0.182-0.006,0.363-0.009,0.542c-0.011,0.36-0.003,0.711-0.001,1.058c0.007,0.698,0.049,1.376,0.132,2.012
			c0.04,0.319,0.107,0.625,0.16,0.923c0.039,0.146,0.077,0.291,0.114,0.432c0.036,0.14,0.072,0.279,0.122,0.412
			c0.165,0.537,0.397,1.002,0.625,1.396c0.243,0.387,0.491,0.699,0.725,0.927c0.236,0.228,0.449,0.372,0.599,0.46
			C13.506,135.497,13.594,135.528,13.594,135.528z"/>
	</g>
	<g>
		<path fill="#A7A9AC" d="M11.693,123.078c0,0-0.053-0.071-0.137-0.213c-0.086-0.142-0.194-0.36-0.317-0.642
			c-0.247-0.564-0.503-1.416-0.612-2.462c-0.035-0.26-0.042-0.535-0.061-0.816c0.001-0.284-0.015-0.576,0.004-0.877
			c0.01-0.299,0.03-0.613,0.05-0.932c0.016-0.32,0.032-0.646,0.048-0.978c0.028-0.664,0.069-1.345,0.137-2.031
			c0.071-0.686,0.172-1.379,0.372-2.043c0.191-0.666,0.469-1.302,0.831-1.876c0.353-0.581,0.812-1.077,1.286-1.521
			c0.124-0.107,0.246-0.213,0.367-0.317c0.112-0.102,0.254-0.197,0.376-0.296c0.253-0.194,0.5-0.385,0.742-0.57
			c0.241-0.187,0.476-0.366,0.702-0.542c0.229-0.173,0.441-0.353,0.66-0.5c0.43-0.308,0.825-0.59,1.175-0.841
			c0.345-0.258,0.666-0.454,0.924-0.626c0.259-0.169,0.458-0.311,0.601-0.395c0.141-0.087,0.216-0.135,0.216-0.135
			s-0.079,0.041-0.227,0.117c-0.149,0.074-0.361,0.194-0.629,0.349c-0.268,0.157-0.602,0.334-0.963,0.572
			c-0.365,0.233-0.777,0.496-1.226,0.783c-0.447,0.292-0.906,0.637-1.403,0.99c-0.247,0.178-0.5,0.36-0.759,0.547
			c-0.13,0.097-0.26,0.179-0.393,0.293c-0.127,0.106-0.256,0.213-0.385,0.322c-0.5,0.453-0.999,0.959-1.374,1.573
			c-0.385,0.603-0.683,1.273-0.885,1.968c-0.204,0.696-0.304,1.412-0.372,2.112c-0.067,0.701-0.087,1.391-0.105,2.055
			c-0.015,0.665-0.042,1.3-0.046,1.917c-0.01,0.308,0.014,0.606,0.024,0.895c0.031,0.289,0.05,0.568,0.097,0.832
			c0.037,0.266,0.092,0.518,0.145,0.757c0.063,0.236,0.119,0.461,0.191,0.667c0.134,0.414,0.283,0.764,0.425,1.042
			c0.139,0.279,0.271,0.486,0.367,0.622C11.636,123.011,11.693,123.078,11.693,123.078z"/>
	</g>
	<g>
		<path fill="#A7A9AC" d="M11.118,111.266c0,0-0.095-0.001-0.251-0.068c-0.154-0.067-0.365-0.222-0.517-0.498
			c-0.152-0.275-0.244-0.654-0.258-1.093c-0.01-0.437,0.028-0.948,0.006-1.498c-0.017-0.557-0.063-1.153-0.12-1.781
			c-0.027-0.313-0.055-0.635-0.084-0.964c-0.013-0.165-0.027-0.33-0.041-0.498c-0.011-0.167-0.02-0.336-0.031-0.507
			c-0.028-0.34-0.018-0.684-0.024-1.033c0.001-0.174,0.022-0.347,0.031-0.521c0.011-0.176,0.021-0.347,0.049-0.527
			c0.047-0.355,0.105-0.704,0.188-1.053c0.081-0.349,0.181-0.693,0.311-1.026c0.246-0.67,0.61-1.292,1.057-1.831
			c0.455-0.535,0.976-0.994,1.543-1.372c0.561-0.402,1.118-0.747,1.646-1.086c0.538-0.325,1.041-0.643,1.514-0.921
			c0.943-0.563,1.734-1.028,2.291-1.348c0.555-0.322,0.872-0.506,0.872-0.506s-0.083,0.04-0.239,0.114
			c-0.153,0.076-0.382,0.182-0.668,0.327s-0.635,0.321-1.033,0.523c-0.398,0.204-0.847,0.435-1.33,0.7
			c-0.486,0.258-1.005,0.555-1.553,0.868c-0.542,0.326-1.127,0.662-1.688,1.054c-0.583,0.376-1.154,0.846-1.634,1.411
			c-0.476,0.568-0.869,1.228-1.131,1.933c-0.134,0.352-0.238,0.713-0.319,1.077c-0.084,0.361-0.143,0.731-0.189,1.091
			c-0.026,0.176-0.039,0.365-0.046,0.546c-0.008,0.182-0.025,0.365-0.023,0.544c0.013,0.358,0.009,0.714,0.044,1.059
			c0.013,0.172,0.026,0.343,0.04,0.513c0.019,0.168,0.036,0.335,0.054,0.5c0.039,0.329,0.076,0.65,0.113,0.963
			c0.074,0.626,0.143,1.215,0.184,1.757c0.031,0.27,0.023,0.537,0.037,0.787c0.013,0.249,0.012,0.487,0.035,0.715
			c0.042,0.452,0.159,0.843,0.334,1.121c0.174,0.282,0.412,0.422,0.573,0.479C11.025,111.273,11.118,111.266,11.118,111.266z"/>
	</g>
	<g>
		<path fill="#A7A9AC" d="M10.41,99.636c0,0-0.01-0.018-0.028-0.053c-0.02-0.034-0.046-0.086-0.079-0.156
			c-0.031-0.069-0.075-0.151-0.117-0.252c-0.043-0.102-0.092-0.219-0.146-0.349c-0.059-0.129-0.104-0.28-0.161-0.44
			c-0.052-0.163-0.125-0.332-0.171-0.524c-0.1-0.381-0.226-0.806-0.305-1.284c-0.023-0.119-0.046-0.239-0.07-0.362
			c-0.026-0.124-0.05-0.249-0.06-0.378c-0.031-0.259-0.062-0.526-0.095-0.801c-0.042-0.273-0.043-0.558-0.054-0.849
			c-0.012-0.29-0.022-0.585-0.034-0.887c0.007-0.606,0.02-1.23,0.073-1.859c0.052-0.629,0.132-1.266,0.284-1.883
			c0.146-0.617,0.367-1.214,0.694-1.732c0.333-0.513,0.767-0.941,1.273-1.245c0.518-0.321,1.018-0.63,1.491-0.924
			c0.479-0.284,0.931-0.552,1.349-0.8c1.672-0.998,2.786-1.663,2.786-1.663s-0.293,0.14-0.801,0.395
			c-0.253,0.129-0.56,0.286-0.914,0.465c-0.353,0.179-0.751,0.38-1.179,0.614c-0.431,0.232-0.896,0.483-1.389,0.748
			c-0.487,0.274-0.994,0.572-1.519,0.88c-0.542,0.313-1.045,0.771-1.406,1.332c-0.36,0.562-0.598,1.198-0.755,1.841
			c-0.153,0.646-0.231,1.302-0.279,1.945c-0.053,0.646-0.046,1.28-0.042,1.89c0.019,0.307,0.038,0.608,0.057,0.903
			c0.02,0.294,0.032,0.584,0.084,0.861c0.043,0.279,0.085,0.549,0.125,0.811c0.016,0.131,0.047,0.257,0.078,0.381
			s0.061,0.246,0.09,0.365c0.029,0.119,0.057,0.236,0.085,0.35c0.024,0.115,0.057,0.224,0.096,0.33
			c0.072,0.212,0.14,0.413,0.203,0.602c0.06,0.19,0.144,0.357,0.207,0.517c0.068,0.158,0.123,0.306,0.191,0.432
			c0.125,0.257,0.232,0.453,0.313,0.583c0.038,0.066,0.068,0.116,0.091,0.148C10.399,99.619,10.41,99.636,10.41,99.636z"/>
	</g>
	<g>
		<path d="M18.421,190.743c0.147,0.189,0.379,0.317,0.693,0.385c0.252,0.054,0.449,0.07,0.59,0.047l0.045-0.21l-0.439-0.093
			c-0.036-0.008-0.064-0.026-0.084-0.058c-0.02-0.03-0.025-0.063-0.018-0.1l0.119-0.557c0.008-0.037,0.027-0.064,0.057-0.083
			c0.031-0.018,0.064-0.023,0.101-0.016l1.342,0.286c0.036,0.008,0.064,0.027,0.085,0.055c0.02,0.029,0.025,0.063,0.018,0.099
			l-0.314,1.472c-0.005,0.025-0.02,0.048-0.043,0.067c-0.023,0.02-0.048,0.032-0.076,0.035c-0.218,0.021-0.461,0.023-0.731,0.006
			c-0.269-0.016-0.557-0.057-0.861-0.122c-0.69-0.147-1.19-0.394-1.499-0.739c-0.31-0.345-0.406-0.795-0.287-1.352
			c0.116-0.545,0.397-0.936,0.843-1.175c0.444-0.233,0.972-0.284,1.581-0.154c0.296,0.063,0.56,0.14,0.79,0.228
			c0.229,0.089,0.412,0.171,0.547,0.247c0.021,0.011,0.038,0.028,0.053,0.053c0.014,0.025,0.02,0.048,0.018,0.072l-0.054,0.598
			c-0.004,0.049-0.027,0.084-0.066,0.106s-0.082,0.021-0.126-0.003c-0.142-0.077-0.314-0.159-0.518-0.246
			c-0.099-0.042-0.2-0.08-0.303-0.113c-0.102-0.034-0.206-0.062-0.312-0.084c-0.331-0.071-0.614-0.043-0.851,0.081
			c-0.229,0.127-0.372,0.327-0.431,0.601C18.232,190.331,18.278,190.555,18.421,190.743z"/>
		<path d="M23.695,189.615c0.007-0.034,0.026-0.06,0.057-0.081c0.031-0.02,0.065-0.025,0.1-0.018l0.865,0.184
			c0.034,0.007,0.061,0.026,0.08,0.057c0.02,0.031,0.027,0.063,0.02,0.097l-0.454,2.13c-0.087,0.405-0.304,0.658-0.65,0.76
			c-0.318,0.089-0.746,0.077-1.289-0.039c-0.56-0.12-0.958-0.284-1.198-0.493c-0.263-0.231-0.348-0.563-0.255-0.997l0.445-2.088
			c0.008-0.034,0.026-0.06,0.057-0.08c0.03-0.02,0.064-0.025,0.1-0.018l0.859,0.183c0.037,0.008,0.064,0.027,0.084,0.058
			c0.02,0.031,0.026,0.062,0.019,0.096l-0.369,1.728c-0.041,0.192-0.024,0.34,0.049,0.439c0.073,0.102,0.216,0.174,0.428,0.219
			c0.202,0.043,0.355,0.032,0.464-0.035c0.108-0.066,0.182-0.196,0.223-0.388L23.695,189.615z"/>
		<path d="M24.449,193.085c-0.033-0.007-0.06-0.026-0.08-0.056c-0.02-0.03-0.026-0.062-0.019-0.096l0.648-3.036
			c0.007-0.033,0.025-0.06,0.056-0.08c0.03-0.02,0.063-0.027,0.096-0.02l2.445,0.522c0.034,0.006,0.061,0.026,0.08,0.056
			c0.02,0.03,0.027,0.063,0.02,0.097l-0.131,0.612c-0.007,0.037-0.027,0.064-0.057,0.084c-0.031,0.02-0.063,0.026-0.096,0.019
			l-1.409-0.3l-0.071,0.335l1.203,0.256c0.033,0.008,0.06,0.026,0.08,0.058c0.02,0.03,0.027,0.063,0.02,0.096l-0.129,0.604
			c-0.007,0.036-0.026,0.064-0.058,0.084c-0.03,0.02-0.063,0.026-0.096,0.019l-1.205-0.252l-0.075,0.351l1.521,0.325
			c0.037,0.007,0.063,0.028,0.083,0.058c0.019,0.03,0.023,0.063,0.015,0.1l-0.13,0.612c-0.007,0.034-0.025,0.061-0.054,0.08
			c-0.029,0.02-0.063,0.025-0.099,0.018L24.449,193.085z"/>
		<path d="M28.752,192.79l-0.221,1.036c-0.007,0.034-0.027,0.06-0.057,0.08c-0.03,0.019-0.063,0.025-0.1,0.018l-0.931-0.199
			c-0.033-0.006-0.06-0.025-0.08-0.056c-0.021-0.031-0.026-0.063-0.019-0.096l0.648-3.036c0.007-0.033,0.026-0.06,0.057-0.079
			c0.03-0.02,0.063-0.027,0.096-0.02l2.105,0.449c0.361,0.077,0.633,0.218,0.817,0.424c0.198,0.224,0.266,0.476,0.206,0.759
			c-0.068,0.319-0.213,0.529-0.436,0.63c-0.056,0.027-0.119,0.049-0.188,0.067c-0.07,0.019-0.145,0.033-0.226,0.042
			c0.08,0.067,0.144,0.134,0.195,0.204c0.051,0.07,0.092,0.137,0.122,0.202l0.367,1.092c0.019,0.053,0.011,0.098-0.021,0.132
			c-0.033,0.037-0.075,0.048-0.128,0.037l-1.065-0.227c-0.023-0.005-0.042-0.016-0.06-0.035c-0.018-0.018-0.031-0.039-0.037-0.061
			l-0.325-1.113l0.003,0.011c-0.008-0.017-0.017-0.034-0.027-0.05c-0.009-0.017-0.02-0.031-0.033-0.042
			c-0.019-0.021-0.104-0.048-0.254-0.081L28.752,192.79z M29.021,191.409l-0.133,0.625l0.503,0.107
			c0.204,0.043,0.364,0.053,0.479,0.029c0.117-0.026,0.188-0.099,0.215-0.222c0.022-0.104-0.003-0.188-0.074-0.252
			s-0.184-0.114-0.336-0.147L29.021,191.409z"/>
		<path d="M32.706,193.633l-0.221,1.036c-0.008,0.034-0.026,0.061-0.056,0.08c-0.032,0.019-0.065,0.025-0.101,0.018l-0.931-0.199
			c-0.033-0.007-0.061-0.026-0.08-0.056c-0.02-0.03-0.026-0.063-0.02-0.096l0.648-3.036c0.006-0.033,0.026-0.06,0.057-0.08
			c0.03-0.02,0.063-0.026,0.096-0.02l2.105,0.449c0.361,0.077,0.633,0.219,0.817,0.424c0.197,0.224,0.266,0.477,0.206,0.759
			c-0.068,0.319-0.214,0.53-0.437,0.63c-0.056,0.027-0.119,0.048-0.188,0.068c-0.07,0.019-0.146,0.033-0.227,0.042
			c0.08,0.067,0.144,0.135,0.195,0.203c0.051,0.07,0.091,0.137,0.121,0.202l0.369,1.092c0.018,0.053,0.01,0.097-0.022,0.132
			c-0.033,0.036-0.075,0.048-0.129,0.036l-1.065-0.227c-0.021-0.005-0.042-0.016-0.06-0.035c-0.018-0.018-0.031-0.038-0.037-0.061
			l-0.325-1.113l0.003,0.01c-0.008-0.017-0.017-0.033-0.026-0.049c-0.009-0.017-0.02-0.032-0.032-0.043
			c-0.019-0.021-0.104-0.048-0.255-0.08L32.706,193.633z M32.975,192.252l-0.134,0.625l0.503,0.107
			c0.203,0.043,0.364,0.053,0.48,0.028c0.116-0.025,0.187-0.099,0.213-0.222c0.022-0.103-0.002-0.187-0.073-0.252
			c-0.07-0.065-0.182-0.114-0.336-0.146L32.975,192.252z"/>
		<path d="M35.351,195.412c-0.034-0.007-0.06-0.026-0.08-0.057c-0.02-0.03-0.025-0.062-0.019-0.095l0.648-3.036
			c0.007-0.034,0.026-0.061,0.056-0.081c0.031-0.02,0.063-0.026,0.096-0.02l2.445,0.522c0.034,0.007,0.061,0.027,0.08,0.057
			c0.021,0.03,0.026,0.063,0.02,0.096l-0.13,0.612c-0.008,0.036-0.027,0.064-0.058,0.083c-0.03,0.021-0.063,0.027-0.096,0.02
			l-1.409-0.301l-0.072,0.335l1.204,0.257c0.034,0.007,0.061,0.026,0.08,0.057c0.02,0.03,0.027,0.063,0.02,0.096l-0.129,0.604
			c-0.008,0.037-0.027,0.064-0.058,0.085c-0.03,0.019-0.062,0.025-0.096,0.018l-1.204-0.252l-0.075,0.352l1.522,0.325
			c0.037,0.008,0.063,0.027,0.082,0.057c0.019,0.03,0.023,0.064,0.016,0.101l-0.131,0.612c-0.007,0.034-0.024,0.061-0.054,0.081
			s-0.062,0.026-0.098,0.018L35.351,195.412z"/>
		<path d="M38.328,196.047c-0.03-0.007-0.054-0.024-0.069-0.054c-0.016-0.029-0.021-0.062-0.013-0.095l0.648-3.036
			c0.007-0.034,0.024-0.061,0.05-0.081c0.026-0.021,0.055-0.028,0.085-0.022l0.78,0.167c0.031,0.006,0.053,0.025,0.07,0.054
			c0.015,0.03,0.019,0.062,0.012,0.095l-0.648,3.036c-0.007,0.034-0.024,0.061-0.049,0.081c-0.027,0.021-0.056,0.027-0.086,0.021
			L38.328,196.047z"/>
		<path d="M40.836,195.368l-0.221,1.036c-0.007,0.034-0.026,0.061-0.057,0.08c-0.03,0.02-0.064,0.025-0.1,0.018l-0.931-0.199
			c-0.033-0.007-0.06-0.026-0.08-0.056c-0.021-0.03-0.027-0.063-0.02-0.096l0.647-3.037c0.007-0.033,0.026-0.06,0.057-0.08
			c0.03-0.02,0.063-0.026,0.096-0.019l2.105,0.449c0.36,0.077,0.633,0.219,0.817,0.424c0.198,0.224,0.266,0.477,0.206,0.759
			c-0.068,0.319-0.213,0.53-0.436,0.63c-0.056,0.027-0.119,0.049-0.188,0.068c-0.069,0.019-0.145,0.033-0.226,0.042
			c0.08,0.067,0.144,0.134,0.195,0.204c0.051,0.07,0.091,0.138,0.122,0.202l0.368,1.092c0.017,0.052,0.01,0.097-0.022,0.132
			c-0.032,0.036-0.075,0.047-0.128,0.036l-1.065-0.227c-0.023-0.004-0.042-0.016-0.061-0.035c-0.018-0.018-0.03-0.039-0.037-0.061
			l-0.324-1.113l0.002,0.01c-0.009-0.017-0.017-0.034-0.027-0.049c-0.01-0.018-0.021-0.032-0.033-0.043
			c-0.019-0.021-0.104-0.048-0.254-0.081L40.836,195.368z M41.104,193.987l-0.133,0.625l0.503,0.107
			c0.204,0.044,0.364,0.053,0.48,0.029c0.117-0.025,0.188-0.099,0.214-0.222c0.021-0.103-0.002-0.188-0.073-0.252
			c-0.07-0.065-0.184-0.114-0.336-0.146L41.104,193.987z"/>
		<path d="M46.596,197.426c-0.394,0.209-0.913,0.244-1.562,0.106c-0.648-0.139-1.109-0.383-1.382-0.733
			c-0.272-0.351-0.348-0.813-0.226-1.386s0.38-0.964,0.772-1.174c0.392-0.21,0.914-0.247,1.562-0.108
			c0.648,0.139,1.108,0.384,1.381,0.736c0.272,0.352,0.348,0.814,0.226,1.387C47.245,196.827,46.988,197.217,46.596,197.426z
			 M46.115,195.418c-0.112-0.151-0.3-0.255-0.563-0.311c-0.263-0.056-0.476-0.038-0.639,0.055c-0.163,0.093-0.27,0.259-0.321,0.5
			c-0.051,0.239-0.021,0.436,0.09,0.586c0.11,0.151,0.298,0.254,0.56,0.311c0.263,0.056,0.476,0.038,0.641-0.054
			c0.165-0.092,0.273-0.259,0.325-0.498C46.258,195.766,46.228,195.57,46.115,195.418z"/>
	</g>
</g>
</svg>
